<svg xmlns="http://www.w3.org/2000/svg" xmlns:xlink="http://www.w3.org/1999/xlink" viewBox="0 0 3097.49 2112.64"><defs><style>.cls-1{fill:url(#linear-gradient);}.cls-2{fill:url(#Gradiente_sem_nome_49);}.cls-3{fill:url(#Gradiente_sem_nome_13);}.cls-4{fill:url(#Gradiente_sem_nome_33);}</style><linearGradient id="linear-gradient" y1="994.76" x2="1212.98" y2="994.76" gradientUnits="userSpaceOnUse"><stop offset="0" stop-color="#fff8a5"/><stop offset="0.03" stop-color="#fde67e"/><stop offset="0.04" stop-color="#f0d36f"/><stop offset="0.08" stop-color="#cb9a42"/><stop offset="0.11" stop-color="#b47727"/><stop offset="0.13" stop-color="#ab6a1c"/><stop offset="0.16" stop-color="#b67a29"/><stop offset="0.23" stop-color="#d2a44a"/><stop offset="0.32" stop-color="#fde67e"/><stop offset="0.39" stop-color="#fef298"/><stop offset="0.44" stop-color="#fff8a5"/><stop offset="0.69" stop-color="#fde67e"/><stop offset="0.78" stop-color="#fcd38e"/><stop offset="0.85" stop-color="#fccb95"/><stop offset="0.89" stop-color="#fccf92"/><stop offset="0.93" stop-color="#fdda88"/><stop offset="0.96" stop-color="#fde67e"/><stop offset="0.98" stop-color="#fef093"/><stop offset="1" stop-color="#fff7a0"/></linearGradient><linearGradient id="Gradiente_sem_nome_49" x1="66.29" y1="746.19" x2="1724.35" y2="746.19" gradientUnits="userSpaceOnUse"><stop offset="0" stop-color="#ff992e"/><stop offset="0.19" stop-color="#f87f39"/><stop offset="0.96" stop-color="#da1566"/></linearGradient><linearGradient id="Gradiente_sem_nome_13" x1="3097.49" y1="1117.89" x2="1884.51" y2="1117.89" gradientUnits="userSpaceOnUse"><stop offset="0" stop-color="#ff992e"/><stop offset="0.19" stop-color="#f87f39"/><stop offset="1" stop-color="#da1566"/></linearGradient><linearGradient id="Gradiente_sem_nome_33" x1="-1823.59" y1="-1802.43" x2="-165.53" y2="-1802.43" gradientTransform="translate(1207.6 -435.96) rotate(180)" gradientUnits="userSpaceOnUse"><stop offset="0" stop-color="#da1566"/><stop offset="1" stop-color="#ff992e"/></linearGradient></defs><g id="Camada_2" data-name="Camada 2"><g id="Layer_1" data-name="Layer 1"><path class="cls-1" d="M301.09,1989.53h-.89l0,0h-.1l0,0h0l0,0h0l0,0h0l0,0,0,0h0l0,0,0,0,0,0,0,0h0l0,0,0,0,0,0,0,0,0,0,0,0,0,0,0,0,0,0,0,0,0,0,0,0,0,0,0,0,0,0,0,0,0,0,0,0,0,0,0,0,0,0-4.66-5.25-4.66-5.25-4.66-5.25-4.66-5.26-4.66-5.25-4.66-5.25-4.66-5.26-4.66-5.25-4.66-5.25-4.67-5.25-4.66-5.26-4.66-5.25-4.66-5.25-4.66-5.26-4.66-5.25-4.66-5.25-4.66-5.25-4.66-5.26-4.66-5.25-4.67-5.25-4.66-5.26-4.66-5.25-4.66-5.25-4.66-5.25-4.66-5.26-4.66-5.25-4.66-5.25-4.66-5.26-4.66-5.25-4.67-5.25-4.66-5.25-4.66-5.26-4.66-5.25-4.66-5.25-4.66-5.26-4.66-5.25-4.66-5.25-4.66-5.25-4.66-5.26-4.67-5.25-4.66-5.25-4.66-5.26-4.66-5.25-4.66-5.25-4.66-5.25L84.6,1747l-4.66-5.25-4.66-5.25-4.66-5.25L66,1726l-4.66-5.25-4.66-5.25L52,1710.19l-4.66-5.25-4.66-5.25L38,1694.44l-4.66-5.26-4.66-5.25L24,1678.68l-4.67-5.26-4.66-5.25L10,1662.92l-4.66-5.25L.7,1652.41l0,0,0,0,0,0,0,0,0,0,0,0,0,0,0,0,0,0,0,0,0,0,0,0,0,0,0,0,0,0,0,0,0,0,0,0,0,0,0,0,0,0v0l0,0v0l0,0v-.08l0,0v-1.42l0,0v-.17l0,0v0l0,0v0l0,0,0,0v0l0,0,0,0,0,0,0,0,0,0,0,0,0,0,0,0,0,0,0,0,0,0,0,0,0,0,0,0,0,0,0,0,0,0,0,0,0,0,0,0,0,0,0,0,0,0,0,0,0,0,0,0,0,0,0,0,0,0,0,0,0,0,0,0,0,0,0,0,0,0,0,0,0,0,0,0,0,0,0,0,0,0,0,0,0,0,0,0,0,0,0,0h0l0,0,0,0h0l.05,0h0l0,0H2l.05,0,9-2.64,9-2.65,9-2.65,9-2.64,9-2.65,9-2.64,9-2.65,9-2.65,9-2.64,9-2.65,9-2.65,9-2.64,9-2.65,9-2.65,9-2.64,9-2.65,9-2.65,9-2.64,9-2.65,9-2.65,9-2.64,9-2.65,9-2.65,9-2.64,9-2.65,9-2.64,9-2.65,9-2.65,9-2.64,9-2.65,9-2.65,9-2.64,9-2.65,9-2.65,9-2.64,9-2.65,9-2.65,9-2.64,9-2.65,9-2.65,9-2.64,9-2.65,9-2.65,9-2.64,9-2.65,9-2.64,9-2.65,9-2.65,9-2.64,9-2.65,9-2.65,9-2.64,9-2.65,9-2.65,9-2.64,9-2.65,9-2.65,9-2.64,9-2.65,9-2.65,9-2.64,9-2.65,9-2.65,9-2.64-7.51-11-7.52-11-7.51-11-7.51-11-7.51-11-7.52-11-7.51-11-7.51-11-7.52-11-7.51-11-7.51-11-7.51-11-7.52-11-7.51-11-7.51-11-7.51-11-7.52-11-7.51-11-7.51-11-7.51-11-7.52-11-7.51-11-7.51-11-7.51-11-7.52-11-7.51-11-7.51-11-7.51-11-7.52-11-7.51-11-7.51-11-7.51-11-7.52-11-7.51-11-7.51-11-7.51-11-7.52-11-7.51-11-7.51-11-7.51-11-7.52-11-7.51-11-7.51-11-7.51-11-7.52-11-7.51-11-7.51-11-7.51-11-7.52-11-7.51-11-7.51-11-7.51-11-7.52-11-7.51-11-7.51-11-7.51-11-7.52-11-7.51-11-7.51-11-7.51-11-7.52-11-7.51-11-7.51-11-7.52-11h0v-.06h0v0l0,0v0h0v-.1h0v-.16h0v-.8l-1.41-12.06-1.4-12.06-1.41-12-1.41-12.06-1.4-12.06-1.41-12.06-1.4-12.06-1.41-12.06-1.4-12.06-1.41-12.06-1.41-12.06-1.4-12.06-1.41-12.06L75,606.09,73.63,594,72.23,582l-1.41-12.05-1.4-12.06L68,545.8,66.6,533.74l-1.4-12.06-1.41-12.06-1.4-12.06L61,485.5l-1.4-12.06-1.41-12.06-1.41-12.06-1.4-12.06L54,425.2l-1.4-12.06-1.41-12.06L49.74,389,48.33,377l-1.41-12.06-1.4-12.06-1.41-12.06-1.4-12.06L41.3,316.67l-1.4-12.06-1.41-12.06-1.4-12.06-1.41-12.06-1.41-12.06-1.4-12.06-1.41-12.06-1.4-12.05-1.41-12.06-1.4-12.06L25.84,184,24.43,172,23,159.9l-1.41-12.06-1.4-12.06-1.41-12.06-1.4-12.06L16,99.6,14.59,87.54l-1.4-12.06L11.78,63.42l-1.4-12.06L9,39.31,7.57,27.25,6.16,15.19,4.75,3.13V1.88l0,0V1.78l0,0V1.68l0,0v0l0,0,0,0v0l0,0,0,0,0,0,0,0,0,0v0l0,0,0,0,0,0,0,0,0,0,0,0,0,0,0,0,0,0,0,0,0,0,0,0,0,0,0,0,0,0,0,0,0,0,0,0,0,0,0,0,0,0,0,0,0,0,0,0,0,0,0,0,0,0,0,0,0,0,0,0,0,0,0,0,0,0,0,0,0,0,0,0,0,0,0,0,0,0,0,0,0,0h0l0,0,0,0h0l0,0h0l0,0h0l0,0h1l18.8.37L45.16.76,64,1.13l18.79.37,18.79.37,18.79.37,18.8.37L157.91,3l18.79.37,18.79.37,18.79.37,18.8.37,18.79.37,18.79.37,18.79.37,18.79.37L327,6.31l18.8.37,18.79.37,18.79.37,18.79.37L421,8.16l18.8.37,18.79.37,18.79.37,18.79.37L515,10l18.79.37,18.8.37,18.79.37,18.79.37,18.79.37,18.79.37,18.8.37,18.79.37,18.79.37,18.79.37,18.79.37,18.79.37,18.8.37,18.79.37,18.79.37,18.79.37,18.79.37,18.8.37L872,17l18.79.37,18.79.37,18.79.37,18.79.37,18.8.37,18.79.37,18.79.37,18.79.37,18.79.37,18.79.37,18.8.37,18.79.37,18.79.37,18.79.37,18.79.37,18.8.37,18.79.37,18.79.37h.49l.07,0h.07l.06,0,.07,0,.07,0,.06,0,.06,0,.07,0,.06,0,.06,0,.06,0,.06,0,.06,0,.06,0,.06,0,0,0,.06,0,0,0,.05,0,.06,0,0,0,0,0,0,.05.05,0,0,.05,0,.05,0,0,0,.05a.1.1,0,0,0,0,.05l0,.06,0,.05,0,.05,0,.06,0,.06,0,0,0,.06,0,.06,0,.06,0,.06,0,.07a.14.14,0,0,0,0,.06l0,.06,0,.06,0,.07,0,.07,0,.06a.19.19,0,0,0,0,.07V26a.64.64,0,0,0,0,.07.17.17,0,0,0,0,.07v.07a.17.17,0,0,1,0,.07.17.17,0,0,0,0,.07v.43s0,0,0,.07,0,0,0,.07,0,0,0,.06,0,.05,0,.07,0,.05,0,.07,0,0,0,.07,0,0,0,.06l0,.07s0,0,0,.06,0,0,0,.06l0,.07,0,.06,0,.06,0,.06,0,.06,0,.06,0,.06,0,.06,0,.06,0,.05a.21.21,0,0,1,0,.06l0,.05,0,.05,0,0,0,.06,0,0,0,0,0,.05s0,0,0,0l0,0,0,0,0,0,0,0-.06.05-.05,0,0,0-.06,0,0,0-.06,0-.06,0,0,0-.06,0-.06,0-.06,0-.07,0-.06,0-.06,0-.06,0-.07,0-.06,0-.07,0-.06,0h-.68l-18.74-.37-18.74-.37-18.75-.37-18.74-.37-18.74-.37-18.74-.37L1079,26.68l-18.75-.37-18.74-.37-18.74-.36L1004,25.21l-18.74-.37-18.75-.37-18.74-.37L929,23.73l-18.74-.37L891.53,23l-18.74-.37L854,22.25l-18.74-.36-18.74-.37-18.74-.37-18.74-.37-18.75-.37L741.59,20l-18.74-.37-18.74-.37-18.74-.37-18.75-.37-18.74-.36-18.74-.37-18.74-.37-18.74-.37-18.75-.37-18.74-.37L535.43,16l-18.74-.37L498,15.24l-18.75-.37-18.74-.36-18.74-.37L423,13.77l-18.74-.37L385.49,13l-18.74-.37L348,12.29l-18.74-.37-18.74-.37-18.75-.36L273,10.82l-18.74-.37-18.74-.37-18.74-.37-18.75-.37L179.33,9,160.59,8.6l-18.74-.37-18.74-.37L104.36,7.5,85.62,7.13,66.88,6.76,48.14,6.39,29.4,6,10.65,5.65l1.4,12,1.4,12,1.4,12,1.4,12,1.4,12,1.4,12,1.39,12,1.4,12,1.4,12,1.4,12,1.4,12,1.4,12,1.4,12,1.4,12,1.39,12,1.4,12,1.4,12,1.4,12,1.4,12,1.4,12,1.4,12,1.39,12,1.4,12,1.4,12,1.4,12,1.4,12,1.4,12,1.4,12,1.4,12,1.39,12,1.4,12,1.4,12,1.4,12,1.4,12,1.4,12,1.4,12,1.39,12,1.4,12,1.4,12,1.4,12,1.4,12,1.4,12,1.4,12,1.39,12,1.4,12,1.4,12,1.4,12,1.4,12,1.4,12,1.4,12,1.4,12,1.39,12,1.4,12,1.4,12,1.4,12,1.4,12,1.4,12,1.4,12,1.39,12,1.4,12,1.4,12,1.4,12,1.4,12,1.4,12,7.54,11,7.54,11,7.54,11,7.54,11,7.54,11,7.54,11,7.54,11,7.54,11,7.54,11,7.54,11,7.54,11,7.54,11,7.54,11,7.54,11,7.54,11,7.54,11,7.54,11,7.54,11,7.54,11,7.54,11,7.54,11,7.54,11,7.54,11,7.54,11,7.54,11,7.54,11,7.54,11,7.55,11,7.54,11,7.54,11,7.54,11,7.54,11,7.54,11,7.54,11,7.54,11,7.54,11,7.54,11,7.54,11,7.54,11,7.54,11,7.54,11,7.54,11,7.54,11,7.54,11,7.54,11,7.54,11,7.54,11,7.54,11,7.54,11,7.54,11,7.54,11,7.54,11,7.54,11,7.54,11,7.54,11,7.54,11,7.54,11,7.54,11,7.54,11,7.54,11,7.54,11,7.54,11,7.54,11,7.54,11,0,0,0,0,0,0,0,0,0,0,0,0,0,0v0l0,0,0,0,0,0,0,0v0l0,0v0l0,0v0l0,0v.12l0,0V1481l0,0v.08l0,0v0l0,0,0,0v0l0,0,0,0,0,0,0,0,0,0,0,0,0,0,0,0,0,0,0,0,0,0,0,0,0,0,0,0,0,0,0,0,0,0,0,0,0,0,0,0,0,0,0,0,0,0,0,0,0,0,0,0,0,0,0,0,0,0,0,0,0,0,0,0,0,0,0,0,0,0,0,0,0,0,0,0,0,0,0,0,0,0,0,0,0,0,0,0,0,0h0l0,0,0,0,0,0h0l0,0h0l0,0h0l0,0h-.08l0,0-9,2.64-9,2.64-9,2.65-9,2.64-9,2.65-9,2.64-9,2.64-9,2.65-9,2.64-9,2.65-9,2.64-9,2.64-9,2.65-9,2.64-9,2.65-9,2.64-9,2.64-9,2.65-9,2.64-9,2.65-9,2.64-9,2.64-9,2.65-9,2.64-9,2.65-9,2.64-9,2.64-9,2.65-9,2.64-9,2.65-9,2.64-9,2.64-9,2.65-9,2.64-9,2.65-9,2.64-9,2.65-9,2.64-9,2.64-9,2.65-9,2.64-9,2.65-9,2.64-9,2.64-9,2.65-9,2.64-9,2.65-9,2.64-9,2.64-9,2.65-9,2.64-9,2.65-9,2.64-9,2.64-9,2.65-9,2.64-9,2.65-9,2.64-9,2.64-9,2.65-9,2.64-9,2.65-9,2.64-9,2.64,4.61,5.21,4.62,5.2,4.61,5.2,4.62,5.2,4.61,5.2,4.62,5.2,4.61,5.21,4.62,5.2,4.62,5.2,4.61,5.2,4.62,5.2,4.61,5.2,4.62,5.2,4.61,5.21L77,1730l4.61,5.2,4.62,5.2,4.62,5.2,4.61,5.2,4.62,5.21,4.61,5.2,4.62,5.2,4.61,5.2,4.62,5.2,4.61,5.2,4.62,5.21,4.61,5.2,4.62,5.2,4.62,5.2,4.61,5.2,4.62,5.2,4.61,5.21,4.62,5.2,4.61,5.2,4.62,5.2,4.61,5.2,4.62,5.2,4.62,5.2,4.61,5.21,4.62,5.2,4.61,5.2,4.62,5.2,4.61,5.2,4.62,5.2,4.61,5.21,4.62,5.2,4.62,5.2,4.61,5.2,4.62,5.2,4.61,5.2,4.62,5.21,4.61,5.2,4.62,5.2,4.61,5.2,4.62,5.2,4.62,5.2,4.61,5.21,4.62,5.2,4.61,5.2,4.62,5.2,4.61,5.2,4.62,5.2,4.61,5.2,4.62,5.21.05,0,0,.06.05,0,0,.06,0,.06,0,.06,0,0,0,.06,0,.06,0,.07,0,.06,0,.06,0,.06,0,.07,0,.06a.14.14,0,0,1,0,.06l0,.07,0,.06s0,0,0,.07l0,.06v.07l0,.06v.27a.2.2,0,0,0,0,.07v.53a.15.15,0,0,0,0,.07v.06l0,.07s0,0,0,.06,0,.05,0,.07,0,0,0,.06a.19.19,0,0,0,0,.07l0,.06,0,.06a.14.14,0,0,1,0,.07.14.14,0,0,0,0,.06l0,.06,0,.06,0,.06,0,.07,0,0,0,.06,0,.06,0,.06,0,.06,0,.05,0,.06,0,0,0,0-.05.06-.05,0,0,0-.05,0-.05,0,0,0,0,0,0,0,0,0,0,0,0,0,0,0,0,0,0,0,0,0,0,0,0,0h0l0,0,0,0h0l0,0,0,0h0l0,0h0l0,0h-.06l0,0h-.05l0,0h-1.09Z"/><path class="cls-2" d="M727.23,1331.38h-.14l-10.14-.52-10.13-.52-10.14-.51-10.13-.52-10.14-.52-10.14-.52-10.13-.52-10.14-.51-10.13-.52-10.14-.52-10.13-.52-10.14-.52-10.14-.51-10.13-.52-10.14-.52-10.13-.52-10.14-.51-10.13-.52-10.14-.52-10.14-.52-10.13-.52L504.1,1320l-10.13-.52-10.14-.52-10.13-.52-10.14-.52-10.14-.51-10.13-.52-10.14-.52-10.13-.52-10.14-.52-10.13-.51-10.14-.52-10.14-.52-10.13-.52-10.14-.52-10.13-.51-10.14-.52-10.13-.52-10.14-.52-10.14-.51-10.13-.52-10.14-.52-10.13-.52-10.14-.52-10.13-.51-10.14-.52-10.14-.52-10.13-.52-10.14-.52-10.13-.51-10.14-.52-10.13-.52-10.14-.52-10.14-.52-10.13-.51-10.14-.52-10.13-.52-10.14-.52-10.14-.52-10.13-.51-10.14-.52-10.13-.52-10.14-.52h-.67l0,0h-.08l0,0,0,0h0l0,0,0,0,0,0,0,0,0,0,0,0,0,0,0,0,0,0,0,0,0,0,0,0,0,0,0,0,0,0,0,0,0,0,0,0,0,0,0,0,0,0,0,0,0,0,0,0,0,0,0,0,0,0,0,0,0,0,0,0,0,0,0,0,0,0,0,0,0,0,0,0,0,0,0,0,0,0,0,0,0,0,0,0,0,0,0,0,0,0,0,0,0-.05,0,0v0l0,0,0,0v-.05l0,0v-.08l0,0v-1.54l0,0v-.09l0,0v0l0,0,0-.05,0,0,0,0v0l0,0,0,0,0,0,0,0,0,0,0,0,4.5-7.41,4.49-7.41,4.5-7.41,4.49-7.41,4.5-7.41,4.49-7.41,4.5-7.4,4.49-7.41,4.5-7.41,4.49-7.41,4.5-7.41,4.49-7.41,4.5-7.41,4.49-7.41,4.5-7.41,4.49-7.4,4.5-7.41,4.49-7.41,4.5-7.41,4.49-7.41,4.5-7.41,4.49-7.41,4.5-7.41,4.49-7.41,4.5-7.41,4.49-7.4,4.5-7.41,4.49-7.41,4.5-7.41,4.49-7.41,4.5-7.41,4.49-7.41,4.5-7.41,4.49-7.41,4.5-7.4,4.49-7.41,4.5-7.41,4.49-7.41,4.5-7.41,4.49-7.41,4.5-7.41,4.49-7.41,4.5-7.41,4.49-7.41,4.5-7.4,4.49-7.41,4.5-7.41,4.49-7.41,4.5-7.41,4.49-7.41,4.5-7.41,4.49-7.41,4.5-7.41,4.49-7.4,4.5-7.41,4.49-7.41,4.5-7.41,4.49-7.41,4.5-7.41,4.49-7.41,4.5-7.41,4.49-7.41,4.5-7.4,4.49-7.41-4.64-5.49-4.64-5.49-4.64-5.49-4.63-5.48-4.64-5.49L336,786.9l-4.64-5.49-4.64-5.48-4.64-5.49L317.45,765l-4.64-5.49L308.17,754l-4.64-5.49L298.9,743l-4.64-5.49L289.62,732,285,726.54l-4.64-5.49-4.64-5.49-4.64-5.48-4.64-5.49-4.64-5.49-4.63-5.49-4.64-5.48-4.64-5.49-4.64-5.49-4.64-5.49L234,666.18l-4.64-5.49-4.64-5.49L220,649.71l-4.64-5.48-4.63-5.49-4.64-5.49-4.64-5.49-4.64-5.48-4.64-5.49-4.64-5.49-4.64-5.49-4.64-5.48-4.64-5.49L169,589.35l-4.64-5.49-4.64-5.48-4.64-5.49-4.64-5.49-4.64-5.49-4.64-5.48-4.64-5.49-4.64-5.49L127.25,540l-4.63-5.48L118,529l-4.64-5.49L108.7,518l-4.64-5.48L99.42,507l-4.64-5.49-4.64-5.49-4.64-5.48-4.64-5.49-4.63-5.49-4.64-5.49L67,468.63l0-.06,0-.05,0-.06a.21.21,0,0,1,0-.06l0-.06,0-.06,0-.06,0-.06,0-.06,0-.06,0-.06,0-.07,0-.06a.14.14,0,0,0,0-.06.19.19,0,0,1,0-.07.14.14,0,0,1,0-.06l0-.07a.14.14,0,0,1,0-.06s0,0,0-.07v-.13l0-.07v-.66a.15.15,0,0,1,0-.07v-.13l0-.07v-.13l0-.06,0-.07V466l0-.07,0-.06a.14.14,0,0,1,0-.06l0-.07a.14.14,0,0,1,0-.06l0-.06,0-.06,0-.06,0-.06,0-.06,0-.06,0-.06a.1.1,0,0,0,0,0l0-.06,0-.05a.21.21,0,0,1,0-.06l0-.05,0-.05,0-.05.05,0,0-.05,0-.05.06-.05,0,0,.06-.05.06,0,0,0,.06,0,.06,0,.06,0,.06,0,.06,0,.07,0,.06,0,.06,0,.06,0,.07,0,.06,0,.07,0,.06,0,.07,0h.06l.07,0h1.13l.06,0h.07l.06,0,.07,0,.06,0,.06,0,.07,0,.06,0,.06,0,.06,0,.06,0,.06,0,.06,0,.06,0,.06,0,.06,0,.05,0,.06,0a.1.1,0,0,1,.05,0l.06,0,.05.05,0,0,.06.05,0,.05,0,.05,0,.05,0,.06,4.62,5.46L80.44,476l4.62,5.46,4.62,5.47,4.62,5.46,4.62,5.47,4.62,5.46,4.62,5.47,4.62,5.47,4.62,5.46,4.62,5.47,4.62,5.46,4.62,5.47,4.62,5.46L140.5,547l4.62,5.46,4.62,5.47,4.62,5.46,4.62,5.47,4.62,5.46,4.62,5.47,4.62,5.46,4.62,5.47,4.62,5.46,4.62,5.47,4.62,5.47,4.62,5.46,4.62,5.47,4.62,5.46L209.8,629l4.62,5.46,4.62,5.47,4.62,5.46,4.62,5.47,4.62,5.46,4.62,5.47,4.62,5.46,4.62,5.47,4.63,5.46,4.62,5.47,4.62,5.47,4.62,5.46,4.62,5.47,4.62,5.46,4.62,5.47,4.62,5.46,4.62,5.47,4.62,5.46,4.62,5.47,4.62,5.46,4.62,5.47,4.62,5.46,4.62,5.47,4.62,5.46,4.62,5.47,4.62,5.46,4.62,5.47,4.62,5.47,4.62,5.46,4.62,5.47,4.62,5.46,4.62,5.47,4.62,5.46,4.62,5.47,2.71-4.47,2.71-4.47L375,801.4l2.71-4.46,2.71-4.47,2.71-4.47,2.71-4.46,2.71-4.47,2.71-4.47,2.71-4.47,2.71-4.46,2.71-4.47,2.71-4.47,2.71-4.47,2.71-4.46,2.71-4.47,2.71-4.47,2.71-4.47,2.71-4.46,2.72-4.47,2.71-4.47,2.71-4.47,2.71-4.46,2.71-4.47,2.71-4.47,2.71-4.47,2.71-4.46,2.71-4.47,2.71-4.47,2.71-4.47,2.71-4.46,2.71-4.47,2.71-4.47,2.71-4.47,2.71-4.46,2.71-4.47,2.71-4.47,2.71-4.47,2.71-4.46,2.71-4.47,2.71-4.47,2.71-4.47,2.71-4.46,2.71-4.47,2.71-4.47,2.71-4.47,2.71-4.46,2.72-4.47,2.71-4.47,2.71-4.47,2.71-4.46,2.71-4.47,2.71-4.47,2.71-4.47L516,569.1l2.71-4.47,2.71-4.47,2.71-4.47,2.71-4.46,2.71-4.47,2.71-4.47,2.71-4.47,2.71-4.46,2.71-4.47-7.15-1.59-7.15-1.6-7.15-1.59-7.15-1.59-7.16-1.6-7.15-1.59-7.15-1.59-7.15-1.59-7.15-1.6L468.84,513l-7.15-1.59-7.15-1.6-7.16-1.59-7.15-1.59-7.15-1.6-7.15-1.59-7.15-1.59-7.15-1.6-7.15-1.59L397.33,497l-7.15-1.59-7.16-1.6-7.15-1.59-7.15-1.59-7.15-1.6-7.15-1.59-7.15-1.59-7.15-1.6L333,482.69l-7.16-1.59-7.15-1.6-7.15-1.59-7.15-1.59-7.15-1.59-7.15-1.6-7.15-1.59L275.76,470l-7.16-1.6-7.15-1.59-7.15-1.59-7.15-1.6L240,462l-7.15-1.59-7.15-1.6-7.15-1.59-7.16-1.59L204.24,454l-7.15-1.6-7.15-1.59-7.15-1.59-7.15-1.6-7.15-1.59-7.15-1.59-7.15-1.6L147,441.27l-7.15-1.59-7.15-1.6-7.15-1.59-7.15-1.59-7.15-1.6-7.15-1.59L97,430.12l-7.16-1.59-7.15-1.6h-.11l0,0-.06,0h0l-.06,0,0,0-.05,0,0,0,0,0,0,0,0,0-.05,0,0,0,0,0,0,0,0,0,0,0,0,0,0,0,0,0,0,0,0,0,0,0,0,0,0,0,0,0,0,0,0,0,0,0,0,0,0,0,0-.05,0,0,0,0,0-.05,0,0,0-.05,0,0,0-.05,0-.05,0,0,0,0,0-.05,0-.05,0-.05,0-.05,0,0,0-.05,0-.05,0-.06,0-.05V425l0-.06v-.05l0-.05v-1.35l0,0v-.05l0-.06,0-.05v-.05l0-.05,0,0,0-.05,0-.05,0-.05,0-.05,0,0,0-.05,0-.05,0,0,0,0,0-.05,0,0,0-.05,0,0,0,0,0-.05,0,0,0,0,0,0,0,0,0,0,0,0,0,0,0,0,0,0,0,0,0,0,0,0,0,0,0,0,0,0,0,0,0,0,0,0,.05,0,0,0,0,0,0,0,0,0,.05,0,0,0,.06,0,10.65-4.06,10.65-4.07,10.66-4.07,10.65-4.07,10.66-4.07,10.65-4.07,10.65-4.07,10.66-4.07L178.17,385l10.65-4.07,10.66-4.07,10.65-4.06,10.65-4.07,10.66-4.07,10.65-4.07,10.65-4.07,10.66-4.07,10.65-4.07,10.66-4.07,10.65-4.07L306,336.16l10.66-4.06L327.32,328,338,324l10.66-4.07,10.65-4.07,10.65-4.07,10.66-4.07,10.65-4.07,10.66-4.07,10.65-4.07,10.65-4.07,10.66-4.06,10.65-4.07,10.65-4.07,10.66-4.07,10.65-4.07L487.12,267l10.66-4.07,10.65-4.07,10.66-4.07,10.65-4.07,10.65-4.07,10.66-4.06,10.65-4.07,10.65-4.07L583,230.37l10.65-4.07,10.65-4.07L615,218.16l10.65-4.07L636.27,210,646.93,206l10.65-4.07,10.66-4.06,10.65-4.07,10.65-4.07,10.66-4.07,10.65-4.07,10.65-4.07,10.66-4.07,10.65-4.07,10.65-4.07,10.66-4.07,0,0h.05l0,0,.06,0h0l0,0h1.28l0,0h.1l.06,0H766l0,0,.05,0,0,0,0,0,.05,0,0,0,0,0,.05,0,0,0,.05,0,0,0,0,0,0,0,0,0,0,0,.05,0,0,0,0,0,.05,0,0,0,0,0,0,0,0,0,0,0,0,0,0,0,0,.05,0,0,0,0,0,0,0,0,0,0,0,.05,0,0,0,.05,0,0,0,.05,0,0,0,0,0,0,0,.05,0,.05,0,0,0,.05,0,0,0,.05,0,.05,0,0,0,.05v0l0,.05v1.43l0,0v.05l0,0,0,.05v.05l0,.06,0,0,0,.05,0,0,0,.05,0,.05,0,0,0,0,0,.05,0,.05-3.41,5.62-3.41,5.63-3.42,5.62-3.41,5.62-3.41,5.63L747,199l-3.41,5.62-3.41,5.63-3.42,5.62-3.41,5.62L730,227.1l-3.41,5.62-3.41,5.62L719.72,244l-3.41,5.62-3.41,5.63-3.41,5.62-3.41,5.62-3.41,5.63-3.42,5.62-3.41,5.62L692.43,289,689,294.58l-3.41,5.62-3.41,5.63-3.42,5.62-3.41,5.62L672,322.7l-3.41,5.62-3.41,5.62-3.41,5.63-3.42,5.62-3.41,5.63-3.41,5.62-3.41,5.62-3.41,5.63-3.42,5.62-3.41,5.62-3.41,5.63L631,390.18l-3.41,5.62-3.41,5.63-3.42,5.62-3.41,5.62L614,418.3l-3.41,5.62-3.41,5.62-3.41,5.63-3.42,5.62-3.41,5.62L593.49,452l-3.41,5.62-3.41,5.63-3.41,5.62-3.42,5.62-3.41,5.63L573,485.78l-3.41,5.62L566.2,497l-3.42,5.62-3.41,5.62L556,513.9l-3.41,5.62-3.41,5.62,4.72,1.06,4.72,1,4.72,1,4.72,1.05,4.72,1,4.72,1.05,4.72,1,4.72,1.06,4.72,1.05,4.72,1,4.72,1.05,4.72,1,4.72,1,4.72,1.05,4.72,1.06,4.72,1.05,4.72,1,4.72,1.05,4.72,1,4.72,1,4.72,1.05,4.72,1.06,4.72,1.05,4.72,1,4.72,1,4.72,1.05,4.72,1,4.72,1.05,4.72,1.06,4.72,1.05,4.72,1,4.72,1,4.72,1.05,4.72,1,4.72,1.06,4.72,1,4.72,1,4.72,1.05,4.72,1,4.72,1.05,4.72,1,4.72,1.06,4.72,1.05,4.72,1,4.72,1.05,4.72,1,4.72,1,4.72,1.05,4.72,1.06,4.72,1.05,4.72,1,4.72,1.05,4.72,1,4.72,1,4.72,1.05,4.72,1.06,4.72,1.05,4.72,1,4.72,1,4.72,1.05,4.72,1,4.72,1.05,4.72,1.06,4.72,1.05,1-6.12,1.06-6.11,1-6.11,1-6.11,1.06-6.12,1-6.11,1.05-6.11,1.06-6.12,1.05-6.11,1-6.11,1-6.12,1.06-6.11,1-6.11,1.05-6.12,1.06-6.11,1.05-6.11,1-6.12,1.06-6.11,1.05-6.11,1-6.12,1.06-6.11,1-6.11,1.05-6.11,1.06-6.12,1-6.11,1.05-6.11,1-6.12,1.06-6.11,1-6.11,1-6.12,1.06-6.11,1-6.11L886,390.7l1.06-6.11,1.05-6.11,1-6.12,1.06-6.11,1-6.11,1-6.11,1.06-6.12,1-6.11,1.05-6.11,1-6.12,1.06-6.11,1.05-6.11,1-6.12,1.06-6.11,1-6.11,1.05-6.12,1.06-6.11,1-6.11,1.05-6.12,1.06-6.11,1.05-6.11,1-6.11,1.06-6.12,1-6.11,1-6.11,1.05-6.12,1.06-6.11,1.05-6.11,1-6.12,1.06-6.11,1-6.11v-.13s0,0,0-.06V201l0-.06,0-.06,0-.06,0-.06,0-.05,0-.06,0-.06,0,0,0-.06,0-.05,0-.06,0,0,0-.05,0-.05,0,0,0-.05,0,0,0-.05,0-.05,0,0,0,0,0,0,0,0,0,0,.05,0,0,0,0,0,.05,0,0,0,0,0,.05,0,0,0,0,0,.05,0,0,0,.05,0,0,0,.06,0,0,0,0,0,.06,0,0,0,.06,0,.06,0,.05,0,.06,0,.06,0h.06l.06,0h.06l.06,0h.57l6.69,0,6.69,0,6.69,0,6.69,0,6.69,0,6.69,0,6.7,0,6.69,0,6.69,0,6.69,0,6.69,0,6.69,0,6.69,0,6.69,0,6.69,0,6.69,0,6.69,0,6.69,0,6.69,0,6.69,0,6.7,0,6.69,0,6.69,0,6.69,0,6.69,0,6.69,0,6.69,0,6.69,0,6.69,0,6.69,0,6.69,0,6.69,0,6.69,0,6.69,0,6.7,0,6.69,0,6.69,0,6.69,0,6.69,0,6.69,0,6.69,0,6.69,0,6.69,0,6.69,0,6.69,0,6.69,0,6.69,0,6.69,0,6.7,0,6.69,0,6.69,0,6.69,0,6.69,0,6.69,0,6.69,0,6.69,0,6.69,0,6.69,0,6.69,0,6.69,0,6.69,0,6.7,0,6.69,0,6.69,0,.22-.32.23-.31.23-.32.23-.32.23-.32.23-.31.22-.32.23-.32.23-.32.23-.31.23-.32.22-.32.23-.32.23-.31.23-.32.23-.32.23-.32.22-.31.23-.32.23-.32.23-.32.23-.31.22-.32.23-.32.23-.31.23-.32.23-.32.23-.32.22-.31.23-.32.23-.32.23-.32.23-.31.22-.32.23-.32.23-.32.23-.31.23-.32.22-.32.23-.32.23-.31.23-.32.23-.32.23-.32.22-.31.23-.32.23-.32.23-.32.23-.31.22-.32.23-.32.23-.32.23-.31.23-.32.23-.32.22-.31.23-.32.23-.32.23-.32.23-.31.22-.32.23-.32.23-.32.23-.31,0-.05,0,0,0,0,0,0,0,0,0,0,0,0,0,0,0,0,0,0,0,0,0,0,0,0,0,0,0,0,0,0,0,0,0,0,0,0,0,0,0,0,0,0,0,0,0,0,0,0,0,0,0,0,0,0,0,0,.05,0,0,0,0,0h0l0,0h0l.05,0h0l0,0h1.33l.05,0h.11l0,0,0,0h0l0,0,0,0,0,0,0,0,0,0,0,0,0,0,0,0,0,0,0,0,0,0,0,0,0,0,0,0,0,0,0,0,.05,0,0,0,0,0,0,0,0,0,0,0,0,0,0,0,0,0,0,0,0,0,0,0,0,0,0,0,0,0,0,0,0,.05,0,0,0,0,0,0,0,0,0,.05,0,0,0,0,0,0,0,0,0,0,0,0,0,.05,0,0,0,0,0,0,0,.05v0l0,.05v.1l0,.05v.21l0,.3,0,.3,0,.3.05.3,0,.3,0,.3,0,.3,0,.3,0,.31.05.3,0,.3,0,.3,0,.3,0,.3.05.3,0,.3,0,.3,0,.3,0,.3.05.31,0,.3,0,.3,0,.3,0,.3.05.3,0,.3,0,.3,0,.3,0,.3,0,.3.05.31,0,.3,0,.3,0,.3,0,.3.05.3,0,.3,0,.3,0,.3,0,.3.05.3,0,.31,0,.3,0,.3,0,.3,0,.3,0,.3,0,.3,0,.3,0,.3,0,.3.05.31,0,.3,0,.3,0,.3,0,.3.05.3,0,.3,0,.3,0,.3,0,.3,0,.3,0,.31,0,.3,5.46,0,5.46,0,5.45,0,5.46,0,5.46,0,5.46,0,5.46,0,5.46,0,5.46,0,5.45,0,5.46,0,5.46,0,5.46,0,5.46,0,5.46,0,5.46,0,5.45,0,5.46,0,5.46,0,5.46,0,5.46,0,5.46,0,5.46,0,5.45,0,5.46,0,5.46,0,5.46,0,5.46,0,5.46,0,5.45,0,5.46,0,5.46,0,5.46,0,5.46,0,5.46,0,5.46,0,5.45,0,5.46,0,5.46,0,5.46,0,5.46,0,5.46,0,5.46,0,5.45,0,5.46,0,5.46,0,5.46,0,5.46,0,5.46,0,5.45,0,5.46,0,5.46,0,5.46,0,5.46,0,5.46,0,5.46,0,5.45,0,5.46,0,5.46,0,5.46,0,5.46,0,5.46,0,5.46,0,5.45,0h.57l.06,0h.07l.07,0,.06,0,.07,0,.06,0,.06,0,.07,0,.06,0,.06,0,.06,0,.06,0,.06,0,.06,0a.1.1,0,0,0,0,0l.06,0,0,0,.06,0,0,0,0,0,.05,0,0,.05,0,0,0,0,0,.05.05.05,0,0,0,.05,0,0,0,.05,0,.06,0,.05,0,.06,0,.06,0,.05,0,.06,0,.06,0,.06,0,.07,0,.06a.14.14,0,0,1,0,.06l0,.06,0,.07,0,.06a.64.64,0,0,0,0,.07.64.64,0,0,1,0,.07s0,0,0,.06a.64.64,0,0,0,0,.07s0,0,0,.07V206a.15.15,0,0,1,0,.07v.5s0,0,0,.07v.27l0,.07s0,.05,0,.07a.64.64,0,0,0,0,.07.14.14,0,0,1,0,.06.19.19,0,0,1,0,.07.14.14,0,0,1,0,.06s0,.05,0,.07l0,.06a.14.14,0,0,1,0,.06l0,.06,0,.06,0,.06,0,.06,0,.06,0,.06,0,.06,0,.05,0,.06,0,.05,0,0,0,.06,0,.05-.05,0,0,0,0,0,0,.05,0,0,0,.05-.05,0,0,0,0,0-.06,0-.05,0-.06,0,0,0-.06,0-.06,0-.06,0-.06,0-.06,0-.06,0-.07,0-.06,0-.06,0-.07,0-.06,0h-.07l-.07,0h-.06l-.07,0h-.51l-5.44,0-5.45,0-5.44,0-5.45,0-5.44,0-5.44,0-5.45,0-5.44,0-5.45,0-5.44,0-5.45,0-5.44,0-5.44,0-5.45,0-5.44,0-5.45,0-5.44,0-5.45,0-5.44,0-5.44,0-5.45,0-5.44,0-5.45,0-5.44,0-5.44,0-5.45,0-5.44,0-5.45,0-5.44,0-5.45,0-5.44,0-5.44,0-5.45,0-5.44,0-5.45,0-5.44,0-5.45,0-5.44,0-5.44,0-5.45,0-5.44,0-5.45,0-5.44,0-5.45,0-5.44,0-5.44,0-5.45,0-5.44,0-5.45,0-5.44,0-5.44,0-5.45,0-5.44,0-5.45,0-5.44,0-5.45,0-5.44,0-5.44,0-5.45,0-5.44,0-5.45,0-5.44,0-5.45,0-5.44,0,1.27,8.05,1.27,8,1.27,8.05,1.27,8,1.27,8.05,1.27,8,1.27,8,1.27,8.05,1.27,8.05,1.27,8,1.27,8.05,1.27,8,1.28,8.05,1.27,8,1.27,8,1.27,8.05,1.27,8,1.27,8,1.27,8.05,1.27,8,1.27,8.05,1.27,8,1.27,8.05,1.27,8.05,1.27,8,1.27,8.05,1.27,8.05,1.27,8,1.27,8.05,1.27,8,1.27,8.05,1.27,8.05,1.27,8,1.27,8.05,1.27,8,1.27,8.05,1.28,8,1.27,8,1.27,8,1.27,8.05,1.27,8,1.27,8.05,1.27,8,1.27,8,1.27,8.05,1.27,8,1.27,8,1.27,8,1.27,8,1.27,8.05,1.27,8,1.27,8,1.27,8.05,1.27,8,1.27,8,1.27,8,1.27,8,1.27,8,1.27,8,1.27,8,1.27,8,1.28,8,1.27,8,1.27,8a.15.15,0,0,0,0,.07v.07a.17.17,0,0,1,0,.07.2.2,0,0,0,0,.07v.4a.15.15,0,0,1,0,.07V723l0,.07v.13l0,.06,0,.06v.07l0,.06,0,.06,0,.06,0,.06,0,.06,0,.06,0,.06,0,.06,0,.06,0,.05,0,.06,0,0,0,.06a.1.1,0,0,0,0,0l0,.05,0,0,0,0,0,.05,0,0,0,.05,0,0-.05,0,0,0,0,0,0,0,0,0-.06,0,0,0,0,0-.06,0-.06,0,0,0-.06,0-.06,0-.06,0-.06,0-.06,0-.06,0-.07,0-.06,0-.07,0-.06,0-.07,0h-.07l-.07,0-10,2-10,2.05-10,2-10,2.05-10,2-10,2-10,2.05-10,2-10,2.05-10,2-10,2-10,2.05-10,2-10,2.05-10,2-10,2-10,2.05-10,2-10,2.05-10,2-10,2-10,2.05-10,2-10,2.05-10,2-10,2-10,2.05-10,2-10,2.05-10,2.06-10,2-10,2.05-10,2-10,2.05-10,2-10,2-10,2.05-10,2-10,2.05-10,2-10,2-10,2.05-10,2-10,2.05-10,2-10,2-10,2.05-10,2-10,2.05-10,2-10,2-10,2.05-10,2-10,2.05-10,2-10,2-10,2.05-10,2-10,2.05-10,2-10,2-10,2.05-10,2-10,2.05-1.27,7.39-1.28,7.38-1.27,7.39L806.3,886,805,893.39l-1.27,7.38-1.28,7.38-1.27,7.39-1.27,7.38-1.27,7.39-1.27,7.38-1.28,7.39-1.27,7.38-1.27,7.39-1.27,7.38L791,974.61,789.76,982l-1.27,7.38-1.27,7.39-1.27,7.38-1.28,7.39-1.27,7.38-1.27,7.38-1.27,7.39-1.27,7.38-1.28,7.39-1.27,7.38-1.27,7.39-1.27,7.38-1.27,7.39-1.28,7.38-1.27,7.38-1.27,7.39-1.27,7.38-1.28,7.39-1.27,7.38-1.27,7.39-1.27,7.38-1.27,7.38-1.28,7.39-1.27,7.38-1.27,7.39-1.27,7.38-1.27,7.39-1.28,7.38-1.27,7.39-1.27,7.38-1.27,7.38-1.27,7.39-1.28,7.38-1.27,7.39-1.27,7.38-1.27,7.39-1.28,7.38-1.27,7.39-1.27,7.38-1.27,7.38-1.27,7.39-1.28,7.38-1.27,7.39-1.27,7.38-1.27,7.39-1.27,7.38-1.28,7.38v.19l0,.06,0,.06,0,.06v.06l0,.06,0,.06,0,.05,0,.06,0,.06,0,0,0,.06,0,0,0,0,0,0,0,.06,0,.05,0,0,0,0,0,0,0,0,0,.05,0,0,0,0,0,0,0,0-.05,0,0,0,0,0-.05,0,0,0-.05,0,0,0,0,0-.05,0,0,0-.05,0,0,0,0,0-.05,0-.06,0-.05,0-.06,0-.05,0-.06,0,0,0-.06,0-.06,0-.06,0,0,0h-.06l-.06,0h-.62ZM83.34,1292.9l10,.51,10,.51,10,.52,10,.51,10,.51,10,.51,10,.52,10,.51,10,.51,10,.51,10,.51,10,.52,10,.51,10,.51,10,.51,10,.52,10,.51,10,.51,10,.51,10,.51,10,.52,10,.51,10,.51,10,.51,10,.52,10,.51,10,.51,10,.51,10,.51,10,.52,10,.51,10,.51,10,.51,10,.52,10,.51,10,.51,10,.51,10,.51,10,.52,10,.51,10,.51,10,.51,10,.52,10,.51,10,.51,10,.51,10,.51,10,.52,10,.51,10,.51,10,.51,10,.52,10,.51,10,.51,10,.51,10,.51,10,.52,10,.51,10,.51,10,.51,10,.52,10,.51,10,.51,10,.51,1.26-7.31,1.26-7.31,1.26-7.32,1.25-7.31,1.26-7.31,1.26-7.31,1.26-7.32,1.26-7.31,1.26-7.31,1.26-7.32,1.26-7.31,1.26-7.31,1.26-7.31,1.26-7.32,1.26-7.31,1.26-7.31,1.26-7.31,1.26-7.32,1.26-7.31,1.26-7.31,1.26-7.32,1.26-7.31,1.26-7.31,1.26-7.31,1.26-7.32,1.26-7.31,1.26-7.31,1.26-7.31,1.26-7.32,1.26-7.31L764,1099l1.26-7.32,1.26-7.31,1.26-7.31,1.26-7.31,1.26-7.32,1.26-7.31,1.26-7.31,1.26-7.32,1.26-7.31,1.26-7.31,1.26-7.31,1.26-7.32,1.26-7.31,1.26-7.31,1.26-7.31,1.26-7.32,1.26-7.31,1.26-7.31L787.9,960l1.26-7.31,1.25-7.31,1.26-7.31,1.26-7.32,1.26-7.31,1.26-7.31,1.26-7.32,1.26-7.31,1.26-7.31,1.26-7.31,1.26-7.32,1.26-7.31,1.26-7.31,1.26-7.31-5.43,1.11-5.43,1.11L789.24,861l-5.43,1.11-5.44,1.12-5.43,1.11-5.43,1.11-5.43,1.11-5.43,1.12-5.44,1.11-5.43,1.11L740.35,871l-5.43,1.11-5.43,1.12-5.43,1.11-5.44,1.11-5.43,1.11-5.43,1.12-5.43,1.11-5.43,1.11L691.46,881,686,882.13l-5.43,1.12-5.43,1.11-5.43,1.11-5.43,1.11-5.44,1.12-5.43,1.11L648,889.92,642.58,891l-5.43,1.11-5.43,1.12-5.44,1.11-5.43,1.11-5.43,1.11L610,897.71l-5.43,1.11-5.44,1.11L593.69,901l-5.43,1.11-5.43,1.12-5.43,1.11L572,905.49l-5.44,1.11-5.43,1.11-5.43,1.12-5.43,1.11-5.43,1.11-5.44,1.11-5.43,1.12-5.43,1.11-5.43,1.11-5.43,1.11-5.43,1.11-5.44,1.12L501.35,920l-5.43,1.11-5.43,1.11-5.43,1.12-5.44,1.11-5.43,1.11-5.43,1.11-5.43,1.11-5.43,1.12h-1.16l-.05,0h-.17l0,0h0l-.05,0h0l0,0,0,0-.05,0,0,0,0,0,0,0,0,0,0,0,0,0,0,0,0,0,0,0,0,0,0,0,0,0,0,0,0,0,0,0,0,0,0,0,0,0,0,0,0,0,0,0,0,0,0,0,0,0,0,0,0,0,0,0-1.36-1.62-1.37-1.62-1.37-1.62-1.37-1.62-1.37-1.62L447,918.2l-1.37-1.61L444.27,915l-1.37-1.62-1.37-1.62-1.37-1.62-1.37-1.62-1.37-1.62-1.36-1.62-1.37-1.62L433.32,902,432,900.4l-1.37-1.62-1.37-1.62-1.36-1.62-1.37-1.62-1.37-1.62-1.37-1.62-1.37-1.61L421,887.45l-1.37-1.62-1.36-1.62-1.37-1.62L415.53,881l-1.37-1.62-1.37-1.62-1.37-1.62-1.36-1.61-1.37-1.62-1.37-1.62L406,869.64,404.58,868l-1.37-1.62-1.37-1.62-1.36-1.62-1.37-1.61-1.37-1.62-1.37-1.62L395,856.69l-1.37-1.62-1.36-1.62-1.37-1.62-1.37-1.62-1.37-1.62L386.79,847l-1.37-1.62-1.37-1.62-1.36-1.62-1.37-1.62L380,838.88l-1.37-1.62-1.37-1.62L375.84,834l-1.36-1.62-1.37-1.62-1.37-1.62-1.37-1.62L369,825.93l-1.37-1.62-4.44,7.32L358.75,839l-4.44,7.32-4.45,7.32-4.44,7.32L341,868.24l-4.44,7.32-4.44,7.33-4.45,7.32-4.44,7.32-4.44,7.32-4.44,7.32-4.44,7.32-4.45,7.33L301,934.14l-4.44,7.32-4.44,7.32-4.44,7.32-4.45,7.32-4.44,7.33-4.44,7.32-4.44,7.32-4.44,7.32L261,1000l-4.44,7.32-4.44,7.33L247.7,1022l-4.44,7.32-4.45,7.32-4.44,7.32-4.44,7.32-4.44,7.33-4.44,7.32-4.45,7.32-4.44,7.32-4.44,7.32-4.44,7.32-4.44,7.33-4.45,7.32-4.44,7.32-4.44,7.32-4.44,7.32-4.45,7.32-4.44,7.33-4.44,7.32-4.44,7.32-4.44,7.32-4.45,7.32-4.44,7.32-4.44,7.33-4.44,7.32-4.44,7.32-4.45,7.32-4.44,7.32-4.44,7.33-4.44,7.32-4.44,7.32L110,1249l-4.44,7.32-4.44,7.32-4.44,7.33-4.44,7.32-4.45,7.32ZM370.68,819.29l1.37,1.62,1.37,1.63,1.37,1.62,1.37,1.62,1.37,1.62L378.9,829l1.37,1.62,1.37,1.62,1.37,1.62,1.37,1.63,1.38,1.62,1.37,1.62,1.37,1.62,1.37,1.62,1.37,1.62,1.37,1.62,1.37,1.63,1.37,1.62,1.37,1.62,1.37,1.62,1.37,1.62,1.37,1.62,1.37,1.62,1.37,1.62,1.37,1.63,1.38,1.62,1.37,1.62,1.37,1.62,1.37,1.62,1.37,1.62,1.37,1.62,1.37,1.62,1.37,1.63,1.37,1.62,1.37,1.62,1.37,1.62,1.37,1.62,1.37,1.62,1.37,1.62,1.37,1.62,1.38,1.63,1.37,1.62,1.37,1.62,1.37,1.62,1.37,1.62,1.37,1.62,1.37,1.62,1.37,1.63,1.37,1.62,1.37,1.62,1.37,1.62L442,903.6l1.37,1.62,1.37,1.62,1.37,1.62,1.38,1.63,1.37,1.62,1.37,1.62,1.37,1.62,1.37,1.62,1.37,1.62,1.37,1.62,1.37,1.62,1.37,1.63,5.44-1.12,5.44-1.11,5.44-1.12,5.44-1.11,5.44-1.11,5.44-1.12,5.44-1.11,5.44-1.11,5.44-1.12,5.44-1.11,5.44-1.12,5.44-1.11,5.44-1.11,5.44-1.12,5.44-1.11,5.44-1.12,5.44-1.11,5.44-1.11,5.44-1.12,5.44-1.11,5.44-1.11,5.44-1.12,5.44-1.11,5.44-1.12,5.44-1.11,5.43-1.11,5.44-1.12,5.44-1.11,5.44-1.12,5.44-1.11,5.44-1.11,5.44-1.12,5.44-1.11,5.44-1.11,5.44-1.12,5.44-1.11,5.44-1.12,5.44-1.11,5.44-1.11L676,878.5l5.44-1.11,5.44-1.11,5.44-1.12,5.44-1.11,5.44-1.12,5.44-1.11,5.44-1.11,5.44-1.12,5.44-1.11,5.44-1.12,5.44-1.11,5.44-1.11,5.44-1.12,5.44-1.11,5.44-1.11,5.44-1.12,5.44-1.11,5.44-1.12,5.44-1.11,5.44-1.11,5.44-1.12,5.44-1.11,5.44-1.12,5.44-1.11.68-4,.68-4,.69-4,.68-4,.68-4,.69-4,.68-4,.68-4,.69-4,.68-4,.68-4,.69-4,.68-4,.68-4,.69-4,.68-4,.68-4,.68-4,.69-4,.68-4,.68-4,.69-4,.68-4,.68-4,.69-4,.68-4,.68-4,.69-4,.68-4,.68-4,.69-4,.68-4,.68-4,.69-4,.68-4,.68-4,.69-4,.68-4,.68-4,.69-4,.68-4,.68-4,.69-4,.68-4,.68-4,.69-4,.68-4,.68-4,.69-4,.68-4,.68-4,.69-4,.68-4,.68-4,.69-4,.68-4,.68-4,.69-4,.68-4,.68-4,.68-4,.69-4,.68-4,.68-4-4.75-1.06-4.75-1.06L836,594.75l-4.76-1.06-4.75-1.05-4.75-1.06L817,590.52l-4.75-1.06-4.75-1.06-4.75-1.06L798,586.28l-4.75-1.06-4.75-1.05-4.76-1.06L779,582.05,774.23,581l-4.75-1.06-4.76-1.06L760,577.81l-4.75-1.06-4.76-1-4.75-1.06L741,573.58l-4.75-1.06-4.76-1.06-4.75-1.06L722,569.34l-4.76-1.06-4.75-1-4.75-1.06-4.75-1.06-4.76-1.06L693.43,563l-4.75-1.06-4.76-1.06-4.75-1.06-4.75-1.06-4.75-1-4.76-1.06-4.75-1.06-4.75-1.06-4.76-1.06-4.75-1.06-4.75-1.06-4.76-1.06-4.75-1-4.75-1.06-4.75-1.06-4.76-1.06L612.63,545l-4.75-1.06-4.76-1.06-4.75-1.06-4.75-1-4.75-1.06-4.76-1.06-4.75-1.06-4.75-1.06-4.76-1.06-4.75-1.06-4.75-1.06-4.75-1.05-4.76-1.06-4.75-1.06-2.74,4.52-2.74,4.51-2.74,4.52-2.74,4.52-2.74,4.52-2.74,4.51-2.75,4.52-2.74,4.52-2.74,4.52-2.74,4.51-2.74,4.52-2.74,4.52-2.74,4.52-2.74,4.51L505,597.93l-2.74,4.52L499.5,607l-2.74,4.51L494,616l-2.74,4.52L488.53,625l-2.74,4.51-2.74,4.52-2.74,4.52-2.74,4.52-2.74,4.52-2.74,4.51-2.74,4.52-2.74,4.52-2.74,4.52-2.74,4.51-2.75,4.52-2.74,4.52-2.74,4.52-2.74,4.51-2.74,4.52-2.74,4.52-2.74,4.52-2.74,4.51-2.74,4.52-2.74,4.52L431,719.91l-2.74,4.51-2.75,4.52-2.74,4.52L420,738l-2.74,4.51L414.53,747l-2.74,4.52-2.74,4.52-2.74,4.51-2.74,4.52-2.74,4.52-2.74,4.52-2.74,4.52-2.75,4.51-2.74,4.52-2.74,4.52-2.74,4.52-2.74,4.51-2.74,4.52-2.74,4.52-2.74,4.52Zm485-220.15-.68,3.93-.68,3.93-.67,3.93-.68,3.93-.68,3.93-.67,3.92-.68,3.93-.68,3.93-.67,3.93-.68,3.93-.68,3.93-.67,3.93-.68,3.92-.68,3.93-.67,3.93-.68,3.93-.68,3.93-.67,3.93-.68,3.93-.68,3.92-.68,3.93-.67,3.93-.68,3.93-.68,3.93-.67,3.93-.68,3.93-.68,3.93-.67,3.92-.68,3.93-.68,3.93-.67,3.93-.68,3.93-.68,3.93-.67,3.93-.68,3.92-.68,3.93-.67,3.93-.68,3.93-.68,3.93-.67,3.93-.68,3.93-.68,3.92-.67,3.93-.68,3.93-.68,3.93-.68,3.93-.67,3.93-.68,3.93-.68,3.93-.67,3.92-.68,3.93-.68,3.93-.67,3.93-.68,3.93-.68,3.93-.67,3.93-.68,3.92-.68,3.93-.67,3.93-.68,3.93-.68,3.93-.67,3.93-.68,3.93-.68,3.93,9.94-2,9.94-2,9.94-2,9.94-2,9.94-2,9.94-2,9.94-2,9.94-2,9.94-2,9.93-2,9.94-2,9.94-2,9.94-2,9.94-2,9.94-2,9.94-2,9.94-2,9.94-2,9.94-2,9.94-2,9.94-2,9.94-2,9.93-2,9.94-2,9.94-2,9.94-2,9.94-2,9.94-2,9.94-2,9.94-2,9.94-2,9.94-2,9.94-2,9.94-2,9.94-2,9.93-2,9.94-2,9.94-2,9.94-2,9.94-2,9.94-2,9.94-2,9.94-2,9.94-2,9.94-2,9.94-2,9.94-2,9.94-2,9.93-2,9.94-2,9.94-2,9.94-2,9.94-2,9.94-2,9.94-2,9.94-2,9.94-2,9.94-2,9.94-2,9.94-2,9.94-2,9.93-2,9.94-2,9.94-2-1.26-8-1.27-8-1.27-8-1.26-8-1.27-8-1.26-8-1.27-8-1.27-8-1.26-8-1.27-8-1.27-8-1.26-8-1.27-8-1.26-8-1.27-8-1.27-8-1.26-8-1.27-8-1.27-8-1.26-8-1.27-8-1.26-8-1.27-8-1.27-8-1.26-8-1.27-8-1.26-8-1.27-8-1.27-8-1.26-8-1.27-8-1.27-8-1.26-8-1.27-8-1.26-8-1.27-8-1.27-8-1.26-8-1.27-8-1.27-8-1.26-8-1.27-8-1.26-8-1.27-8-1.27-8-1.26-8-1.27-8-1.26-8-1.27-8-1.27-8-1.26-8-1.27-8-1.27-8-1.26-8-1.27-8-1.26-8-1.27-8-1.27-8-1.26-8-1.27-8-1.27-8-1.26-8-1.27-8-1.26-8h-15l-4.85,6.75-4.85,6.75-4.85,6.75L1333,234l-4.85,6.75-4.85,6.75-4.85,6.74-4.85,6.75-4.85,6.75-4.85,6.75-4.86,6.75-4.85,6.75-4.85,6.75-4.85,6.74-4.85,6.75-4.85,6.75-4.85,6.75-4.85,6.75-4.85,6.75-4.85,6.75-4.85,6.74-4.85,6.75-4.85,6.75L1236,369l-4.85,6.75-4.85,6.75-4.85,6.75-4.85,6.74-4.85,6.75-4.86,6.75-4.85,6.75-4.85,6.75-4.85,6.75-4.85,6.75-4.85,6.74-4.85,6.75L1173,456.7l-4.85,6.75-4.85,6.75-4.85,6.75-4.85,6.74-4.85,6.75-4.85,6.75-4.85,6.75-4.85,6.75-4.85,6.75-4.85,6.75-4.86,6.74-4.85,6.75-4.85,6.75-4.85,6.75-4.85,6.75-4.85,6.75-4.85,6.75-4.85,6.74-4.85,6.75-4.85,6.75-4.85,6.75-4.85,6.75-4.85,6.75-4.85,6.75-4.85,6.74-4.85,6.75-4.85,6.75,0,0,0,0,0,0,0,0,0,0,0,0,0,0,0,0,0,0,0,0,0,0,0,0,0,0,0,0,0,0,0,0,0,0,0,0,0,0,0,0,0,0,0,0,0,0-.05,0,0,0,0,0,0,0,0,0,0,0,0,0,0,0,0,0,0,0,0,0h-.05l0,0h-.1l0,0h-1.27l-2.87-.63-2.86-.64-2.87-.64-2.86-.64-2.87-.64-2.86-.64-2.87-.63-2.87-.64-2.86-.64-2.87-.64-2.86-.64-2.87-.64-2.87-.64-2.86-.63-2.87-.64-2.86-.64-2.87-.64-2.86-.64-2.87-.64-2.87-.64L979,626.6l-2.87-.64-2.86-.64-2.87-.64-2.87-.64-2.86-.64-2.87-.63-2.86-.64-2.87-.64-2.86-.64-2.87-.64-2.87-.64-2.86-.64-2.87-.63-2.86-.64L936,617l-2.87-.64-2.86-.64-2.87-.64-2.86-.63-2.87-.64-2.86-.64-2.87-.64-2.87-.64-2.86-.64-2.87-.64-2.86-.63-2.87-.64-2.87-.64-2.86-.64-2.87-.64-2.86-.64-2.87-.63-2.86-.64-2.87-.64-2.87-.64-2.86-.64-2.87-.64-2.86-.64-2.87-.63-2.87-.64-2.86-.64-2.87-.64Zm.94-5.49,2.85.63,2.84.64,2.84.63,2.84.63,2.84.64,2.85.63,2.84.63,2.84.64,2.84.63,2.84.63,2.84.63,2.85.64,2.84.63,2.84.63,2.84.64,2.84.63,2.85.63,2.84.64,2.84.63,2.84.63,2.84.64,2.85.63,2.84.63,2.84.64,2.84.63,2.84.63,2.85.63,2.84.64,2.84.63,2.84.63,2.84.64,2.85.63,2.84.63,2.84.64,2.84.63,2.84.63,2.85.64,2.84.63,2.84.63,2.84.63,2.84.64,2.85.63,2.84.63,2.84.64,2.84.63,2.84.63,2.85.64,2.84.63,2.84.63,2.84.64,2.84.63,2.85.63,2.84.64,2.84.63,2.84.63,2.84.63,2.84.64,2.85.63,2.84.63,2.84.64,2.84.63,2.84.63,2.85.64,2.84.63,4.8-6.68,4.79-6.67,4.8-6.68,4.8-6.67,4.8-6.68,4.79-6.67,4.8-6.68,4.8-6.67,4.8-6.68,4.8-6.67,4.79-6.68,4.8-6.67,4.8-6.68,4.8-6.67,4.79-6.68,4.8-6.67,4.8-6.68,4.8-6.67,4.79-6.68,4.8-6.67,4.8-6.68,4.8-6.67,4.8-6.68,4.79-6.67,4.8-6.68,4.8-6.67,4.8-6.68,4.79-6.67,4.8-6.68,4.8-6.67,4.8-6.68,4.79-6.67,4.8-6.68,4.8-6.67,4.8-6.68,4.8-6.67,4.79-6.68,4.8-6.67,4.8-6.68,4.8-6.67,4.79-6.68,4.8-6.67,4.8-6.68,4.8-6.67,4.79-6.68,4.8-6.67,4.8-6.68,4.8-6.67,4.8-6.68,4.79-6.67,4.8-6.68,4.8-6.67,4.8-6.68,4.79-6.67,4.8-6.68,4.8-6.67,4.8-6.68,4.79-6.67,4.8-6.68,4.8-6.67,4.8-6.68,4.8-6.67,4.79-6.68,4.8-6.67-6.59,0-6.59,0-6.6,0-6.59,0-6.59,0-6.59,0-6.59,0-6.6,0-6.59,0-6.59,0-6.59,0-6.59,0-6.6,0-6.59,0-6.59,0-6.59,0-6.59,0-6.6,0-6.59,0-6.59,0-6.59,0-6.6,0-6.59,0-6.59,0-6.59,0-6.59,0-6.6,0-6.59,0-6.59,0-6.59,0-6.59,0-6.6,0-6.59,0-6.59,0-6.59,0-6.59,0-6.6,0-6.59,0-6.59,0-6.59,0-6.59,0-6.6,0-6.59,0-6.59,0-6.59,0-6.6,0-6.59,0-6.59,0-6.59,0-6.59,0-6.6,0-6.59,0-6.59,0-6.59,0-6.59,0-6.6,0-6.59,0-6.59,0-6.59,0-6.59,0-6.6,0-6.59,0-6.59,0-6.59,0-1.05,6.08-1,6.08-1.05,6.08-1,6.08-1,6.09L917.42,241l-1,6.08-1,6.08-1.05,6.08-1,6.08-1.05,6.08-1,6.08-1,6.08L909,289.6l-1,6.08-1,6.09-1.05,6.08-1,6.08L903.8,320l-1,6.08-1,6.08-1.05,6.08-1,6.08-1,6.08-1.05,6.08-1,6.08-1.05,6.09-1,6.08-1,6.08-1.05,6.08-1,6.08-1,6.08-1.05,6.08-1,6.08L887,417.3l-1,6.08-1,6.09-1.05,6.08-1,6.08-1.05,6.08-1,6.08-1,6.08L878.66,466l-1,6.08-1,6.08-1.05,6.08-1,6.08-1.05,6.09-1,6.08-1,6.08-1.05,6.08-1,6.08-1,6.08-1.05,6.08-1,6.08L865,545l-1,6.08-1,6.08-1.05,6.09-1,6.08-1,6.08-1,6.08-1,6.08ZM92.92,423.51l7,1.57,7,1.57,7,1.57,7,1.56,7,1.57,7,1.57,7,1.57,7,1.57,7,1.57,7,1.56,7,1.57,7,1.57,7,1.57,7,1.57,7,1.56,7,1.57,7,1.57,7,1.57,7,1.57,7,1.56,7,1.57,7,1.57,7,1.57,7,1.57,7,1.56,7,1.57,7,1.57,7,1.57,7,1.57,7,1.56,7,1.57,7,1.57,7,1.57,7,1.57,7,1.56,7,1.57,7,1.57,7,1.57,7,1.57,7,1.56,7,1.57,7,1.57,7,1.57,7,1.57,7,1.56,7,1.57,7,1.57,7,1.57,7,1.57,7,1.56,7,1.57,7,1.57,7,1.57,7,1.57,7,1.56,7,1.57,7,1.57,7,1.57,7,1.57,7,1.56,7,1.57,7,1.57,7,1.57,7,1.57,3.36-5.54,3.36-5.54,3.37-5.54,3.36-5.54,3.36-5.55,3.36-5.54,3.36-5.54,3.36-5.54,3.36-5.54,3.36-5.54,3.36-5.54,3.37-5.54,3.36-5.54,3.36-5.54,3.36-5.54,3.36-5.54,3.36-5.54,3.36-5.54,3.36-5.54,3.37-5.54,3.36-5.54,3.36-5.54,3.36-5.54,3.36-5.54,3.36-5.54,3.36-5.54,3.36-5.54,3.36-5.54,3.37-5.54,3.36-5.54,3.36-5.54,3.36-5.54,3.36-5.54,3.36-5.54L661,330l3.36-5.54,3.37-5.54,3.36-5.54,3.36-5.54,3.36-5.54,3.36-5.54,3.36-5.54,3.36-5.54,3.36-5.54,3.37-5.54L698,269l3.36-5.54,3.36-5.54,3.36-5.54,3.36-5.54,3.36-5.54,3.36-5.54,3.36-5.54,3.37-5.54,3.36-5.54,3.36-5.54,3.36-5.54,3.36-5.54,3.36-5.54,3.36-5.54,3.36-5.54,3.37-5.54,3.36-5.54,3.36-5.54-10.4,4-10.4,4-10.4,4-10.4,4-10.4,4-10.4,4-10.4,4-10.4,4-10.4,4-10.4,4-10.4,4-10.4,4-10.4,4-10.4,4-10.4,4-10.4,4-10.4,4-10.4,4-10.4,4-10.4,4-10.4,4-10.4,4-10.4,4-10.4,4-10.4,4-10.4,4-10.4,4-10.4,4-10.4,4-10.4,4-10.4,4-10.4,4-10.4,4-10.4,4-10.4,4-10.4,4-10.4,4-10.4,4-10.4,4-10.4,4-10.4,4-10.4,4-10.4,4-10.4,4-10.4,4-10.4,4-10.4,4-10.4,4-10.4,4-10.4,4-10.4,4-10.4,4-10.4,4-10.4,4-10.4,4-10.4,4-10.4,4-10.4,4-10.4,4-10.4,4-10.4,4-10.4,4-10.4,4Zm1263.5-222h10.18l0-.18,0-.18,0-.18,0-.19,0-.18,0-.18,0-.18,0-.18,0-.19,0-.18,0-.18,0-.18,0-.19,0-.18,0-.18,0-.18,0-.18,0-.19,0-.18,0-.18,0-.18,0-.19,0-.18,0-.18,0-.18,0-.18,0-.19,0-.18,0-.18,0-.18,0-.19,0-.18,0-.18,0-.18,0-.18,0-.19,0-.18,0-.18,0-.18,0-.19,0-.18,0-.18,0-.18,0-.18,0-.19,0-.18,0-.18,0-.18,0-.19,0-.18,0-.18,0-.18,0-.19,0-.18,0-.18,0-.18,0-.18,0-.19,0-.18,0-.18,0-.18,0-.19,0-.18,0-.18-.13.18-.13.18-.13.18-.13.19-.13.18-.13.18-.13.18-.13.18-.13.18-.13.18-.13.18-.13.19-.13.18-.13.18-.13.18-.13.18-.13.18-.13.18-.13.19-.13.18-.13.18-.13.18-.13.18-.13.18-.13.18-.13.18-.13.19-.13.18-.13.18-.13.18-.13.18-.13.18-.14.18-.13.18-.13.19-.13.18-.13.18-.13.18-.13.18-.13.18-.13.18-.13.19-.13.18-.13.18-.13.18-.13.18-.13.18-.13.18-.13.18-.13.19-.13.18-.13.18-.13.18-.13.18-.13.18-.13.18-.13.18-.13.19-.13.18-.13.18-.13.18-.13.18-.13.18Z"/><path class="cls-3" d="M3090,2112.64h-.06l-18.79-.37-18.79-.37-18.79-.37-18.79-.37-18.8-.37-18.79-.37-18.79-.37-18.79-.37-18.79-.37-18.79-.37-18.8-.37-18.79-.37-18.79-.37-18.79-.37-18.79-.37-18.8-.37-18.79-.37-18.79-.37-18.79-.37-18.79-.37-18.79-.37-18.8-.37-18.79-.37-18.79-.37-18.79-.37-18.79-.37-18.79-.37-18.8-.37-18.79-.37-18.79-.37-18.79-.37-18.79-.37-18.8-.37-18.79-.37-18.79-.37-18.79-.37-18.79-.37-18.79-.37-18.8-.37-18.79-.37-18.79-.37-18.79-.37-18.79-.37-18.8-.37-18.79-.37-18.79-.37-18.79-.37-18.79-.37-18.79-.37-18.8-.37-18.79-.37-18.79-.37L2094,2093l-18.79-.37-18.8-.37-18.79-.37-18.79-.37-18.79-.37-18.79-.37-18.79-.37-18.8-.37-18.79-.37-18.79-.37-18.79-.37h-.56l-.07,0-.07,0-.06,0-.07,0-.06,0-.07,0-.06,0-.06,0-.06,0-.06,0-.06,0-.06,0-.06,0-.06,0,0,0-.06,0,0,0-.06,0,0,0,0-.05,0,0,0-.05-.05,0,0,0,0-.05,0,0,0-.05,0-.05,0,0,0-.06,0-.05,0-.06,0-.06,0-.05,0-.06,0-.06,0-.06,0-.06,0-.06,0-.07,0-.06s0,0,0-.06l0-.07a.14.14,0,0,1,0-.06.64.64,0,0,0,0-.07l0-.07v-.06l0-.07a.15.15,0,0,0,0-.07,79333890650.34,79333890650.34,0,0,1,0-.14v-.07s0,0,0-.07v-.29a.2.2,0,0,1,0-.07v-.07s0,0,0-.07a.13.13,0,0,1,0-.06v-.07s0-.05,0-.07v-.07l0-.06,0-.07,0-.07a.14.14,0,0,1,0-.06.14.14,0,0,1,0-.06l0-.07,0-.06,0-.06,0-.06,0-.06,0-.06,0-.06,0-.06,0-.05a.21.21,0,0,1,0-.06l0-.06,0-.05,0-.05,0,0,0-.06,0-.05,0,0,0-.05,0,0,.05,0,0-.05,0,0,0,0,0-.05.06,0,0,0,0,0,.06,0,.06,0,.05,0,.06,0,.06,0,.06,0,.06,0,.06,0,.07,0,.06,0,.06,0,.07,0,.06,0,.07,0,.06,0h.68l18.74.36,18.74.37,18.74.37,18.75.37,18.74.37,18.74.37,18.74.37,18.74.37,18.75.37,18.74.37,18.74.36,18.74.37,18.74.37,18.74.37,18.75.37,18.74.37,18.74.37,18.74.37,18.74.37,18.75.37,18.74.36,18.74.37,18.74.37,18.74.37,18.75.37,18.74.37,18.74.37,18.74.37,18.74.37,18.75.36,18.74.37,18.74.37,18.74.37,18.74.37,18.75.37,18.74.37,18.74.37,18.74.37,18.74.37,18.75.36,18.74.37,18.74.37,18.74.37,18.74.37,18.75.37,18.74.37,18.74.37,18.74.37,18.74.37,18.75.36,18.74.37,18.74.37,18.74.37,18.74.37,18.75.37,18.74.37,18.74.37,18.74.37,18.74.37,18.75.36,18.74.37,18.74.37,18.74.37,18.74.37-1.39-12-1.4-12-1.4-12-1.4-12-1.4-12-1.4-12-1.4-12-1.4-12-1.39-12-1.4-12-1.4-12-1.4-12-1.4-12-1.4-12-1.4-12-1.4-12-1.39-12-1.4-12-1.4-12-1.4-12-1.4-12-1.4-12-1.4-12-1.39-12-1.4-12-1.4-12-1.4-12-1.4-12-1.4-12-1.4-12-1.4-12-1.39-12-1.4-12-1.4-12-1.4-12-1.4-12-1.4-12-1.4-12-1.4-12-1.39-12-1.4-12-1.4-12-1.4-12-1.4-12-1.4-12-1.4-12-1.39-12-1.4-12-1.4-12-1.4-12-1.4-12-1.4-12-1.4-12-1.4-12-1.39-12-1.4-12-1.4-12-1.4-12-1.4-12-1.4-12-1.4-12-1.4-12-1.39-12-1.4-12-7.54-11-7.54-11-7.54-11-7.54-11-7.54-11-7.54-11-7.54-11-7.54-11-7.54-11-7.55-11-7.54-11-7.54-11-7.54-11-7.54-11-7.54-11-7.54-11-7.54-11-7.54-11-7.54-11-7.54-11-7.54-11-7.54-11-7.54-11-7.54-11-7.54-11-7.54-11-7.54-11-7.54-11-7.54-11-7.54-11-7.54-11-7.54-11-7.54-11-7.54-11-7.54-11-7.54-11-7.54-11-7.54-11-7.54-11-7.54-11-7.54-11-7.54-11-7.54-11-7.54-11-7.54-11-7.54-11-7.54-11-7.54-11-7.54-11-7.55-11-7.54-11-7.54-11-7.54-11-7.54-11-7.54-11-7.54-11-7.54-11-7.54-11-7.54-11-7.54-11-7.54-11-7.54-11-7.54-11-7.54-11,0,0,0,0,0,0,0,0,0,0,0,0,0,0,0,0,0,0,0,0v0l0,0,0,0v0l0,0v0l0,0v0l0,0v-1.65l0,0v-.08l0,0v-.08l0,0,0,0v0l0,0,0,0v0l0,0,0,0,0,0,0,0,0,0,0,0,0,0,0,0,0,0,0,0,0,0,0,0,0,0,0,0,0,0,0,0,0,0,0,0,0,0,0,0,0,0,0,0,0,0,0,0,0,0,0,0,0,0,0,0,0,0,0,0,0,0,0,0,0,0,0,0,0,0,0,0,0,0,0,0,0,0,0,0,0,0,0,0h0l0,0,0,0,0,0,0,0h0l0,0h0l0,0h0l0,0h.12l9-2.65,9-2.64,9-2.65,9-2.64,9-2.64,9-2.65,9-2.64,9-2.65,9-2.64,9-2.65,9-2.64,9-2.64,9-2.65,9-2.64,9-2.65,9-2.64,9-2.64,9-2.65,9-2.64,9-2.65,9-2.64,9-2.64,9-2.65,9-2.64,9-2.65,9-2.64,9-2.64,9-2.65,9-2.64,9-2.65,9-2.64,9-2.64,9-2.65,9-2.64,9-2.65,9-2.64,9-2.64,9-2.65,9-2.64,9-2.65,9-2.64,9-2.64,9-2.65,9-2.64,9-2.65,9-2.64,9-2.64,9-2.65,9-2.64,9-2.65,9-2.64,9-2.64,9-2.65,9-2.64,9-2.65,9-2.64,9-2.65,9-2.64,9-2.64,9-2.65,9-2.64,9-2.65,9-2.64,9-2.64-4.62-5.21-4.61-5.2-4.62-5.2-4.61-5.2-4.62-5.2-4.61-5.2-4.62-5.2-4.61-5.21-4.62-5.2-4.61-5.2-4.62-5.2-4.62-5.2-4.61-5.2-4.62-5.21-4.61-5.2-4.62-5.2-4.61-5.2-4.62-5.2-4.61-5.2-4.62-5.21-4.62-5.2-4.61-5.2-4.62-5.2-4.61-5.2-4.62-5.2-4.61-5.2-4.62-5.21-4.61-5.2-4.62-5.2-4.61-5.2-4.62-5.2-4.62-5.2L2937.4,289l-4.62-5.2-4.61-5.2-4.62-5.2-4.61-5.2-4.62-5.2-4.61-5.21-4.62-5.2-4.62-5.2-4.61-5.2-4.62-5.2-4.61-5.2-4.62-5.21-4.61-5.2-4.62-5.2-4.61-5.2-4.62-5.2-4.61-5.2-4.62-5.2-4.62-5.21-4.61-5.2-4.62-5.2-4.61-5.2-4.62-5.2-4.61-5.2L2822,159l-4.61-5.2-4.62-5.2-4.62-5.2-4.61-5.2-4.62-5.2-4.61-5.21-.05-.05,0-.06-.05-.05,0-.06,0-.06,0,0a.21.21,0,0,0,0-.06l0-.06a.21.21,0,0,0,0-.06l0-.07,0-.06,0-.06a.14.14,0,0,1,0-.06l0-.06,0-.07,0-.06a.19.19,0,0,0,0-.07l0-.06s0,0,0-.07l0-.06,0-.07v-.13s0,0,0-.07a.13.13,0,0,0,0-.06v-.07a.15.15,0,0,1,0-.07v-.6s0,0,0-.06a.17.17,0,0,0,0-.07s0,0,0-.06v-.07a.14.14,0,0,0,0-.06l0-.07,0-.06,0-.06,0-.07,0-.06,0-.06,0-.06,0-.06,0-.06,0-.06,0-.06,0-.06,0-.06,0-.06,0,0,0-.06.05,0,0,0,0-.06.05,0s0,0,0,0l.05-.05.05,0,.06,0s0,0,0-.05l.06,0,.05,0,.06,0,.06,0,.06,0,.06,0,.06,0,.06,0,.06,0,.06,0,.06,0,.07,0,.06,0,.07,0,.06,0,.06,0,.07,0,.06,0H2797l.06,0,.07,0h.06l.06,0,.07,0,.06,0,.06,0,.07,0,.06,0,.06,0,.06,0,.06,0,.06,0,.06,0,0,0,.06,0,.06,0,0,0,.06,0,.05,0,.05,0,0,0,.06,0,0,.05.05.06,4.66,5.25,4.67,5.25,4.66,5.26,4.66,5.25,4.66,5.25,4.66,5.25,4.66,5.26,4.66,5.25,4.66,5.25,4.66,5.26,4.66,5.25,4.66,5.25,4.67,5.25,4.66,5.26,4.66,5.25,4.66,5.25,4.66,5.26,4.66,5.25,4.66,5.25,4.66,5.25,4.66,5.26,4.66,5.25,4.67,5.25,4.66,5.25,4.66,5.26,4.66,5.25,4.66,5.25,4.66,5.26,4.66,5.25,4.66,5.25,4.66,5.25,4.66,5.26,4.66,5.25,4.67,5.25,4.66,5.26,4.66,5.25,4.66,5.25,4.66,5.25,4.66,5.26,4.66,5.25,4.66,5.25,4.66,5.26,4.66,5.25,4.67,5.25,4.66,5.25,4.66,5.26,4.66,5.25,4.66,5.25,4.66,5.26,4.66,5.25,4.66,5.25,4.66,5.25,4.66,5.26,4.66,5.25,4.67,5.25,4.66,5.26,4.66,5.25,4.66,5.25,4.66,5.25,4.66,5.26,4.66,5.25,4.66,5.25,4.66,5.26,4.66,5.25,0,0,0,0,0,0,0,0,0,0,0,0,0,0,0,0,0,0,0,0,0,0,0,0,0,0,0,0,0,0,0,0,0,0,0,0,0,0,0,0v0l0,0v0l0,0v0l0,0v.08l0,0v1.51l0,.05V463l0,0v0l0,0v.05l0,0,0,0,0,0,0,0,0,0,0,0,0,0,0,0,0,0,0,0,0,0,0,0,0,0,0,0,0,0,0,0,0,0,0,0,0,0,0,0,0,0,0,0,0,0,0,0,0,0,0,0,0,0,0,0,0,0,0,0,0,0,0,0,0,0,0,0,0,0,0,0,0,0,0,0,0,0,0,0,0,0,0,0,0,0,0,0,0,0,0,0,0,0,0,0,0,0h0l0,0,0,0h0l0,0h-.09l0,0-9,2.64-9,2.65-9,2.65-9,2.64-9,2.65-9,2.65-9,2.64-9,2.65-9,2.64-9,2.65-9,2.65-9,2.64-9,2.65-9,2.65-9,2.64-9,2.65-9,2.65-9,2.64-9,2.65-9,2.65-9,2.64-9,2.65-9,2.65-9,2.64-9,2.65-9,2.65-9,2.64-9,2.65-9,2.65-9,2.64-9,2.65-9,2.64-9,2.65-9,2.65-9,2.64-9,2.65-9,2.65-9,2.64-9,2.65-9,2.65-9,2.64-9,2.65-9,2.65-9,2.64-9,2.65-9,2.65-9,2.64-9,2.65-9,2.65-9,2.64-9,2.65-9,2.64-9,2.65-9,2.65-9,2.64-9,2.65-9,2.65-9,2.64-9,2.65-9,2.65-9,2.64-9,2.65-9,2.65-9,2.64,7.51,11,7.51,11,7.51,11,7.52,11,7.51,11,7.51,11,7.52,11,7.51,11,7.51,11,7.51,11,7.52,11,7.51,11,7.51,11,7.51,11,7.52,11,7.51,11,7.51,11,7.51,11,7.52,11,7.51,11,7.51,11,7.51,11,7.52,11,7.51,11,7.51,11,7.51,11,7.52,11,7.51,11,7.51,11,7.51,11,7.52,11,7.51,11,7.51,11,7.51,11,7.52,11,7.51,11,7.51,11,7.51,11,7.52,11,7.51,11,7.51,11,7.51,11,7.52,11,7.51,11,7.51,11,7.51,11,7.52,11,7.51,11,7.51,11,7.51,11,7.52,11,7.51,11,7.51,11,7.52,11,7.51,11,7.51,11,7.51,11,7.52,11,7.51,11,7.51,11,7.51,11,7.52,11,7.51,11,7.51,11h0v0l0,0v0h0v.08h0v.1h0v.18h0v.78l1.4,12.06,1.41,12.06,1.41,12.06,1.4,12,1.41,12.06,1.4,12.06,1.41,12.06,1.4,12.06,1.41,12.06,1.41,12.06,1.4,12.06,1.41,12.06,1.4,12.06,1.41,12.06,1.4,12.06,1.41,12.06,1.41,12.06,1.4,12,1.41,12.06,1.4,12.06,1.41,12.06,1.4,12.06,1.41,12.06,1.41,12.06,1.4,12.06,1.41,12.06,1.4,12.06,1.41,12.06,1.4,12.06,1.41,12.06,1.41,12.06,1.4,12.06,1.41,12,1.4,12.06,1.41,12.06,1.4,12.06,1.41,12.06,1.41,12.06,1.4,12.06,1.41,12.06,1.4,12.06,1.41,12.06,1.4,12.06,1.41,12.06,1.41,12.06,1.4,12.06,1.41,12,1.4,12.06,1.41,12.06,1.4,12.06,1.41,12.06,1.4,12.06,1.41,12.06,1.41,12.06,1.4,12.06,1.41,12.06,1.4,12.06,1.41,12.06,1.4,12.06,1.41,12.06,1.41,12.06,1.4,12,1.41,12.06,1.4,12.06v1.25l0,0v.07l0,0v0l0,0v0l0,0v0l0,0,0,0v0l0,0,0,0,0,0,0,0,0,0,0,0,0,0,0,0,0,0,0,0,0,0,0,0,0,0,0,0,0,0,0,0,0,0,0,0,0,0,0,0,0,0,0,0,0,0,0,0,0,0,0,0,0,0,0,0,0,0,0,0,0,0,0,0,0,0,0,0,0,0,0,0,0,0,0,0,0,0,0,0,0,0,0,0,0,0h0l0,0,0,0h0l0,0h0l0,0h0l0,0H3091l0,0h-1Z"/><path class="cls-4" d="M2332.38,1951.65h-.89l0,0h-.07l0,0h-.07l0,0,0,0h0l0,0,0,0h0l0,0,0,0,0,0,0,0,0,0,0,0,0,0,0,0,0,0,0,0,0,0,0,0,0,0,0,0,0,0,0,0,0,0,0,0,0,0,0,0,0,0,0,0,0,0,0,0,0,0,0,0,0,0,0,0,0,0,0,0,0,0,0,0,0,0,0,0,0,0,0,0,0,0,0,0,0,0,0-.05,0,0,0,0,0,0,0,0,0-.05v0l0,0,0,0v0l0-.05v-.1l0-.06v-1.27l0-.05v0l0,0v0l0,0,0-.05,0-.06,0,0,0,0,0,0,0,0,0,0,0,0,0,0,0,0,3.41-5.62,3.41-5.63,3.41-5.62,3.42-5.62,3.41-5.63,3.41-5.62,3.41-5.62,3.41-5.63,3.41-5.62,3.42-5.62,3.41-5.63,3.41-5.62,3.41-5.62,3.41-5.63,3.41-5.62,3.42-5.62,3.41-5.63,3.41-5.62,3.41-5.63,3.41-5.62,3.42-5.62,3.41-5.63,3.41-5.62,3.41-5.62,3.41-5.63,3.41-5.62,3.42-5.62,3.41-5.63,3.41-5.62,3.41-5.62,3.41-5.63,3.41-5.62,3.42-5.62,3.41-5.63,3.41-5.62,3.41-5.62,3.41-5.63,3.41-5.62,3.42-5.63,3.41-5.62,3.41-5.62,3.41-5.63,3.41-5.62,3.42-5.62,3.41-5.63,3.41-5.62,3.41-5.62,3.41-5.63,3.41-5.62,3.42-5.62,3.41-5.63,3.41-5.62,3.41-5.62,3.41-5.63,3.41-5.62,3.42-5.63,3.41-5.62,3.41-5.62,3.41-5.63,3.41-5.62,3.41-5.62,3.42-5.63,3.41-5.62,3.41-5.62-4.72-1-4.72-1.06-4.72-1.05-4.72-1-4.72-1-4.72-1-4.72-1-4.72-1.06-4.72-1-4.72-1-4.72-1-4.72-1-4.72-1.05-4.72-1-4.72-1.06-4.72-1-4.72-1-4.72-1.05-4.72-1-4.72-1-4.72-1.06-4.72-1-4.72-1.05-4.72-1-4.72-1-4.72-1-4.72-1-4.72-1.06-4.72-1-4.72-1-4.72-1-4.72-1.05-4.72-1-4.72-1.06-4.72-1-4.72-1-4.72-1.05-4.72-1-4.72-1-4.72-1.06-4.72-1-4.72-1.05-4.72-1-4.72-1-4.72-1-4.72-1-4.72-1.06-4.72-1-4.72-1-4.72-1-4.72-1-4.72-1.05-4.72-1.06-4.72-1-4.72-1-4.72-1-4.72-1.05-4.72-1-4.72-1-4.72-1.06-4.72-1.05-4.72-1-4.73-1-4.72-1-1.05,6.11-1.05,6.11-1,6.12-1.06,6.11-1.05,6.11-1.05,6.12-1.06,6.11-1,6.11-1.05,6.12-1.06,6.11-1.05,6.11-1,6.12-1.06,6.11-1.05,6.11-1.05,6.11-1,6.12-1.06,6.11-1.05,6.11-1,6.12-1.06,6.11-1,6.11-1.05,6.12-1.06,6.11-1.05,6.11-1,6.12-1.06,6.11-1.05,6.11-1,6.12-1.05,6.11-1.06,6.11-1.05,6.11-1,6.12-1.06,6.11-1.05,6.11-1.05,6.12-1.06,6.11-1,6.11-1.05,6.12-1.06,6.11-1.05,6.11-1,6.12L2202,1777l-1.06,6.11-1.05,6.12-1,6.11-1.06,6.11-1.05,6.11-1.05,6.12-1.06,6.11-1,6.11-1.05,6.12-1.06,6.11-1.05,6.11-1,6.12-1.05,6.11-1.06,6.11-1.05,6.12-1,6.11-1.06,6.11-1.05,6.12-1,6.11-1.06,6.11-1,6.11-1.05,6.12v.06l0,.06v.06l0,.06v.06l0,.06,0,.06,0,.06,0,.06,0,.06,0,0,0,.06,0,0,0,.06,0,0,0,.05,0,.06,0,0,0,0,0,0,0,.05,0,0,0,0,0,0,0,0,0,0,0,0,0,0,0,0,0,0-.05,0,0,0-.05,0,0,0,0,0-.05,0-.05,0,0,0-.05,0,0,0-.06,0,0,0-.05,0-.06,0,0,0-.06,0,0,0-.06,0-.06,0-.05,0h-.06l-.06,0-.06,0h-.18l-.06,0h-.45l-6.69,0-6.69,0-6.69,0-6.69,0-6.7,0-6.69,0-6.69,0-6.69,0-6.69,0-6.69,0-6.69,0-6.69,0-6.69,0-6.69,0-6.69,0-6.69,0-6.69,0-6.7,0-6.69,0-6.69,0-6.69,0-6.69,0-6.69,0-6.69,0-6.69,0-6.69,0-6.69,0-6.69,0-6.69,0-6.69,0-6.69,0-6.7,0-6.69,0-6.69,0-6.69,0-6.69,0-6.69,0-6.69,0-6.69,0-6.69,0-6.69,0-6.69,0-6.69,0-6.69,0-6.69,0-6.7,0-6.69,0-6.69,0-6.69,0-6.69,0-6.69,0-6.69,0-6.69,0-6.69,0-6.69,0-6.69,0-6.69,0-6.69,0-6.7,0-6.69,0-6.69,0-6.69,0-6.69,0-6.69,0-.23.31-.23.32-.22.32-.23.32-.23.31-.23.32-.23.32-.22.32-.23.31-.23.32-.23.32-.23.32-.22.31-.23.32-.23.32-.23.32-.23.31-.22.32-.23.32-.23.32-.23.31-.23.32-.23.32-.22.32-.23.31-.23.32-.23.32-.23.32-.22.31-.23.32-.23.32-.23.32-.23.31-.22.32-.23.32-.23.32-.23.31-.23.32-.23.32-.22.32-.23.31-.23.32-.23.32-.23.32-.22.31-.23.32-.23.32-.23.32-.23.31-.22.32-.23.32-.23.32-.23.31-.23.32-.23.32-.22.32-.23.31-.23.32-.23.32-.23.31-.22.32-.23.32-.23.32-.23.31,0,0,0,0,0,0,0,0,0,0,0,0,0,0,0,0,0,0,0,0,0,0,0,0,0,0,0,0,0,0,0,0,0,0,0,0,0,0,0,0,0,0,0,0,0,0,0,0,0,0,0,0,0,0,0,0,0,0,0,0h0l0,0,0,0,0,0h-.05l0,0h-1.42l-.06,0h-.1l0,0,0,0h-.05l0,0,0,0,0,0,0,0-.05,0,0,0,0,0,0,0,0,0,0,0-.05,0,0,0,0,0,0,0,0,0,0,0,0,0,0,0,0,0,0,0,0,0,0,0,0,0,0,0,0,0,0,0,0,0,0,0,0,0,0,0,0,0,0,0,0,0,0,0,0,0,0,0,0,0,0-.05,0,0,0,0,0,0,0,0,0,0,0,0,0,0,0,0,0,0,0-.05,0,0v0l0,0v0l0-.05v-.26l0-.3,0-.3,0-.3-.05-.3,0-.3,0-.3,0-.3,0-.3-.05-.3,0-.31,0-.3,0-.3,0-.3,0-.3-.05-.3,0-.3,0-.3,0-.3,0-.3-.05-.3,0-.31,0-.3,0-.3,0-.3-.05-.3,0-.3,0-.3,0-.3,0-.3,0-.3,0-.3,0-.31,0-.3,0-.3,0-.3-.05-.3,0-.3,0-.3,0-.3,0-.3-.05-.3,0-.3,0-.31,0-.3,0-.3-.05-.3,0-.3,0-.3,0-.3,0-.3,0-.3,0-.3,0-.3,0-.31,0-.3,0-.3-.05-.3,0-.3,0-.3,0-.3,0-.3-.05-.3,0-.3,0-.3-5.46,0-5.46,0-5.46,0-5.46,0-5.45,0-5.46,0-5.46,0-5.46,0-5.46,0-5.46,0-5.46,0-5.45,0-5.46,0-5.46,0-5.46,0-5.46,0-5.46,0-5.46,0-5.45,0-5.46,0-5.46,0-5.46,0-5.46,0-5.46,0-5.45,0-5.46,0-5.46,0-5.46,0-5.46,0-5.46,0-5.46,0-5.45,0-5.46,0-5.46,0-5.46,0-5.46,0-5.46,0-5.46,0-5.45,0-5.46,0-5.46,0-5.46,0-5.46,0-5.46,0-5.46,0-5.45,0-5.46,0-5.46,0-5.46,0-5.46,0-5.46,0-5.46,0-5.45,0-5.46,0-5.46,0-5.46,0-5.46,0-5.46,0-5.46,0-5.45,0-5.46,0-5.46,0-5.46,0-5.46,0h-.56l-.07,0h-.06l-.07,0-.07,0-.06,0-.07,0-.06,0-.06,0-.06,0-.06,0-.06,0-.06,0-.06,0-.06,0-.06,0-.05,0-.06,0,0,0,0,0-.06,0-.05,0,0,0,0,0,0,0,0,0,0-.05,0,0,0,0,0,0,0,0,0-.06,0,0,0-.06,0-.06,0,0,0-.06,0-.06,0-.06,0-.06a.19.19,0,0,1,0-.07l0-.06a.14.14,0,0,1,0-.06l0-.07,0-.06a.19.19,0,0,0,0-.07s0,0,0-.07l0-.06v-.07s0,0,0-.07a158667781252.08,158667781252.08,0,0,1,0-.14v-.07a.15.15,0,0,1,0-.07v-.07s0-.05,0-.07v-.14a.2.2,0,0,0,0-.07V1906s0,0,0-.07v-.07a.13.13,0,0,1,0-.06s0,0,0-.07,0,0,0-.07l0-.07v-.07a.14.14,0,0,0,0-.06l0-.07,0-.06,0-.07a.14.14,0,0,1,0-.06l0-.06,0-.06,0-.06,0-.06,0-.06a.21.21,0,0,0,0-.06l0-.06,0-.06,0,0,0-.06a.1.1,0,0,0,0-.05l0,0,0,0,0,0,0,0,.05-.05,0,0,0,0,0,0,0,0,.05,0,0,0,.06,0,0,0,.06,0,.05,0,.06,0,.06,0,.06,0,.05,0,.06,0,.07,0,.06,0,.06,0,.06,0,.07,0,.06,0h.07l.06,0,.07,0h.07l.07,0h.5l5.45,0,5.44,0,5.45,0,5.44,0,5.45,0,5.44,0,5.44,0,5.45,0,5.44,0,5.45,0,5.44,0,5.45,0,5.44,0,5.44,0,5.45,0,5.44,0,5.45,0,5.44,0,5.45,0,5.44,0,5.44,0,5.45,0,5.44,0,5.45,0,5.44,0,5.45,0,5.44,0,5.44,0,5.45,0,5.44,0,5.45,0,5.44,0,5.45,0,5.44,0,5.44,0,5.45,0,5.44,0,5.45,0,5.44,0,5.45,0,5.44,0,5.44,0,5.45,0,5.44,0,5.45,0,5.44,0,5.45,0,5.44,0,5.44,0,5.45,0,5.44,0,5.45,0,5.44,0,5.45,0,5.44,0,5.44,0,5.45,0,5.44,0,5.45,0,5.44,0,5.45,0,5.44,0,5.44,0,5.45,0-1.27-8-1.27-8-1.27-8-1.27-8-1.27-8-1.27-8-1.27-8-1.28-8-1.27-8-1.27-8-1.27-8-1.27-8-1.27-8-1.27-8-1.27-8.05-1.27-8-1.27-8-1.27-8-1.27-8-1.27-8-1.27-8-1.27-8-1.27-8-1.27-8-1.27-8-1.27-8.05-1.27-8-1.27-8-1.27-8-1.27-8-1.27-8.05-1.28-8-1.27-8-1.27-8-1.27-8-1.27-8.05-1.27-8-1.27-8-1.27-8-1.27-8-1.27-8-1.27-8.05-1.27-8-1.27-8-1.27-8-1.27-8-1.27-8.05-1.27-8-1.27-8-1.27-8-1.27-8-1.27-8-1.27-8-1.27-8-1.27-8-1.27-8-1.28-8-1.27-8-1.27-8-1.27-8-1.27-8-1.27-8-1.27-8.05-1.27-8s0,0,0-.07a.17.17,0,0,0,0-.07v-.81l0-.06v-.07l0-.06v-.06l0-.07,0-.06,0-.06,0-.06,0-.06,0-.06,0-.06,0-.06,0-.06,0,0,0-.06,0-.06,0-.05,0,0,0-.06,0,0,0,0,0-.05,0,0,0,0,0,0,0,0,0-.05,0,0,0,0,0,0,0,0,.05,0,.06,0,0,0,.06,0,0,0,.06,0,.06,0,.06,0,.06,0,.06,0,.06,0,.06,0,.07,0,.06,0,.07,0,.06,0h.07l.07,0,.06,0,10-2.05,10-2,10-2,10-2,10-2,10-2.05,10-2,10-2,10-2,10-2,10-2.05,10-2,10-2,10-2,10-2,10-2.05,10-2,10-2,10-2,10-2,10-2.05,10-2,10-2,10-2,10-2,10-2.06,10-2,10-2,10-2,10-2,10-2.05,10-2,10-2,10-2,10-2,10-2.05,10-2,10-2,10-2,10-2,10-2.05,10-2,10-2,10-2,10-2,10-2.05,10-2,10-2,10-2,10-2,10-2.05,10-2,10-2,10-2,10-2,10-2.06,10-2,10-2,10-2,10-2,10-2.05,10-2,10-2,10-2,1.27-7.38,1.27-7.39,1.28-7.38,1.27-7.39,1.27-7.38,1.27-7.38,1.27-7.39,1.28-7.38,1.27-7.39,1.27-7.38,1.27-7.39,1.27-7.38,1.28-7.38,1.27-7.39,1.27-7.38,1.27-7.39,1.27-7.38,1.28-7.39,1.27-7.38,1.27-7.38,1.27-7.39,1.27-7.38,1.28-7.39,1.27-7.38,1.27-7.39,1.27-7.38,1.28-7.38,1.27-7.39,1.27-7.38,1.27-7.39,1.27-7.38,1.28-7.39,1.27-7.38,1.27-7.38,1.27-7.39,1.27-7.38,1.28-7.39,1.27-7.38,1.27-7.39,1.27-7.38,1.27-7.38,1.28-7.39,1.27-7.38,1.27-7.39,1.27-7.38,1.27-7.39,1.28-7.38,1.27-7.38,1.27-7.39,1.27-7.38,1.27-7.39,1.28-7.38,1.27-7.39,1.27-7.38,1.27-7.38,1.28-7.39,1.27-7.38,1.27-7.39,1.27-7.38,1.27-7.39,1.28-7.38,1.27-7.38,1.27-7.39,1.27-7.38a.2.2,0,0,0,0-.07l0-.06v-.07l0-.06,0-.06a.14.14,0,0,1,0-.06l0-.07,0-.06s0,0,0-.06l0-.06,0-.06,0-.06,0-.05,0-.06,0-.06,0,0,0-.06,0-.05,0,0,0-.06,0,0,0-.05,0,0,0,0,0,0,.05,0,0,0,0,0,0,0,.05,0,0,0,.05,0,0,0,.05,0,0,0,.05,0,.06,0,.05,0,0,0,.06,0,.05,0,.06,0,.05,0,.06,0,.06,0,.06,0,.06,0,.05,0,.06,0,.06,0h.06l.06,0h.76l10.13.52,10.14.52,10.13.51,10.14.52,10.13.52,10.14.52,10.14.52,10.13.51,10.14.52,10.13.52,10.14.52,10.14.52,10.13.51,10.14.52,10.13.52,10.14.52,10.13.52,10.14.51,10.14.52,10.13.52,10.14.52,10.13.52,10.14.51,10.13.52,10.14.52,10.14.52,10.13.51,10.14.52,10.13.52,10.14.52,10.13.52,10.14.51,10.14.52,10.13.52,10.14.52,10.13.52,10.14.51,10.14.52,10.13.52,10.14.52,10.13.52,10.14.51,10.13.52,10.14.52,10.14.52,10.13.52,10.14.51,10.13.52,10.14.52,10.13.52,10.14.51,10.14.52,10.13.52,10.14.52,10.13.52,10.14.51,10.14.52,10.13.52,10.14.52,10.13.52,10.14.51,10.13.52,10.14.52,10.14.52h.66l.05,0h0l0,0h0l0,0h.05l0,0,0,0,0,0,0,0,0,0,0,0,0,0,0,0,0,0,0,0,0,0,0,0,0,0,0,0,0,0,0,0,0,0,0,0,0,0,0,0,0,0,0,0,0,0,0,0,0,0,0,0,0,0,0,0,0,0,0,0,0,0,0,0,0,0,0,0,0,0,0,0,0,0,0,0,0,0,0,0,0,0,0,0,0,0,0,0,0,0,0,0,0,.05v0l0,0,0,0v0l0,0v0l0,0v.09l0,0V818l0,0v0l0,0v0l0,0v0l0,0,0,0,0,0,0,0,0,0,0,0,0,0,0,0,0,0,0,0-4.49,7.41-4.5,7.41-4.49,7.41-4.5,7.41-4.49,7.41-4.5,7.41-4.49,7.4-4.5,7.41-4.49,7.41-4.5,7.41-4.49,7.41-4.5,7.41-4.49,7.41-4.5,7.41-4.49,7.41-4.5,7.4-4.49,7.41-4.5,7.41-4.49,7.41-4.5,7.41-4.49,7.41-4.5,7.41-4.49,7.41-4.5,7.41-4.49,7.4-4.49,7.41-4.5,7.41-4.49,7.41-4.5,7.41-4.49,7.41-4.5,7.41-4.49,7.41-4.5,7.4-4.49,7.41L2864,1078l-4.49,7.41-4.5,7.41-4.49,7.41-4.5,7.41-4.49,7.41-4.5,7.41-4.49,7.4-4.5,7.41-4.49,7.41-4.5,7.41-4.49,7.41-4.5,7.41-4.49,7.41-4.5,7.41-4.49,7.41-4.5,7.4-4.49,7.41-4.5,7.41-4.49,7.41-4.5,7.41-4.49,7.41-4.5,7.41-4.49,7.41-4.5,7.41-4.49,7.4-4.5,7.41-4.49,7.41-4.5,7.41-4.49,7.41,4.64,5.49,4.64,5.48,4.63,5.49,4.64,5.49,4.64,5.49,4.64,5.48,4.64,5.49,4.64,5.49,4.64,5.49,4.64,5.48,4.64,5.49,4.63,5.49,4.64,5.49,4.64,5.48,4.64,5.49,4.64,5.49,4.64,5.49,4.64,5.48,4.64,5.49,4.64,5.49,4.64,5.49,4.63,5.48,4.64,5.49,4.64,5.49,4.64,5.49,4.64,5.48,4.64,5.49,4.64,5.49,4.64,5.49,4.64,5.48,4.63,5.49,4.64,5.49,4.64,5.49,4.64,5.48,4.64,5.49,4.64,5.49,4.64,5.49,4.64,5.48,4.64,5.49,4.64,5.49,4.63,5.49,4.64,5.48,4.64,5.49,4.64,5.49,4.64,5.49,4.64,5.48,4.64,5.49,4.64,5.49,4.64,5.49,4.63,5.48,4.64,5.49,4.64,5.49,4.64,5.49,4.64,5.48,4.64,5.49,4.64,5.49,4.64,5.49,4.64,5.48,4.64,5.49,4.63,5.49,4.64,5.49,4.64,5.48,4.64,5.49,4.64,5.49.05,0,0,.06,0,.06,0,.06a.1.1,0,0,1,0,0l0,.06,0,.06,0,.06,0,.06,0,.07,0,.06,0,.06,0,.07,0,.06s0,0,0,.06a.19.19,0,0,1,0,.07.14.14,0,0,1,0,.06s0,0,0,.07l0,.06v.2a.17.17,0,0,1,0,.07.13.13,0,0,1,0,.06s0,0,0,.07v.67a.13.13,0,0,1,0,.06v.07s0,0,0,.06l0,.07s0,0,0,.06l0,.07,0,.06,0,.07s0,0,0,.06l0,.06a.14.14,0,0,0,0,.06l0,.07,0,.06,0,.06,0,.06,0,0,0,.06,0,.06,0,.06,0,0-.05.06,0,0,0,.06,0,0,0,0-.05,0,0,0-.05.05-.06,0-.05,0-.06,0-.06,0-.05,0-.06,0-.06,0-.06,0-.06,0-.06,0-.06,0-.07,0-.06,0-.06,0-.07,0-.06,0-.06,0h-.07l-.06,0-.07,0H3029l-.07,0h-1l-.06,0h-.07l-.07,0h-.06l-.06,0-.07,0-.06,0-.07,0-.06,0-.06,0-.06,0-.06,0-.06,0-.06,0-.06,0-.06,0-.06,0-.05,0-.06,0-.06,0-.05,0,0,0-.06,0-.05-.05-.05,0,0-.06,0,0-.05,0-4.62-5.47-4.62-5.46-4.62-5.47-4.62-5.46-4.62-5.47-4.62-5.46-4.62-5.47-4.62-5.46-4.62-5.47-4.62-5.46-4.62-5.47-4.62-5.46-4.62-5.47-4.62-5.47-4.62-5.46-4.62-5.47-4.62-5.46-4.62-5.47-4.62-5.46-4.62-5.47-4.62-5.46-4.62-5.47-4.62-5.46-4.62-5.47-4.62-5.46-4.62-5.47-4.62-5.46-4.62-5.47-4.62-5.46-4.62-5.47-4.62-5.46-4.63-5.47-4.62-5.46-4.62-5.47-4.62-5.47-4.62-5.46-4.62-5.47-4.62-5.46-4.62-5.47-4.62-5.46-4.62-5.47-4.62-5.46-4.62-5.47-4.62-5.46-4.62-5.47-4.62-5.46-4.62-5.47-4.62-5.46-4.62-5.47-4.62-5.46-4.62-5.47-4.62-5.46-4.62-5.47-4.62-5.46-4.62-5.47-4.62-5.46-4.62-5.47-4.62-5.47-4.62-5.46-4.62-5.47-4.62-5.46-4.62-5.47-4.62-5.46-4.62-5.47-2.71,4.47-2.71,4.47-2.71,4.47-2.71,4.46-2.71,4.47-2.71,4.47-2.71,4.47-2.71,4.46-2.71,4.47-2.71,4.47-2.71,4.47-2.71,4.46-2.71,4.47-2.71,4.47-2.71,4.47-2.71,4.46-2.71,4.47-2.71,4.47-2.72,4.47-2.71,4.46-2.71,4.47-2.71,4.47-2.71,4.47-2.71,4.46-2.71,4.47-2.71,4.47-2.71,4.46-2.71,4.47-2.71,4.47-2.71,4.47-2.71,4.46-2.71,4.47-2.71,4.47-2.71,4.47-2.71,4.46-2.71,4.47-2.71,4.47-2.71,4.47-2.71,4.46-2.71,4.47-2.71,4.47-2.71,4.47-2.71,4.46-2.72,4.47-2.71,4.47-2.71,4.47-2.71,4.46-2.71,4.47-2.71,4.47-2.71,4.47-2.71,4.46-2.71,4.47-2.71,4.47-2.71,4.47-2.71,4.46-2.71,4.47-2.71,4.47-2.71,4.47-2.71,4.46-2.71,4.47-2.71,4.47-2.71,4.47-2.71,4.46-2.71,4.47,7.15,1.59,7.15,1.6,7.15,1.59,7.15,1.59,7.15,1.6,7.15,1.59,7.16,1.59,7.15,1.6,7.15,1.59,7.15,1.59,7.15,1.59,7.15,1.6,7.15,1.59,7.15,1.59,7.16,1.6,7.15,1.59,7.15,1.59,7.15,1.6L2693,1614l7.15,1.59,7.15,1.6,7.15,1.59,7.15,1.59,7.16,1.59,7.15,1.6,7.15,1.59,7.15,1.59,7.15,1.6,7.15,1.59,7.15,1.59,7.15,1.6,7.16,1.59,7.15,1.59,7.15,1.6,7.15,1.59,7.15,1.59,7.15,1.59,7.15,1.6,7.15,1.59,7.16,1.59,7.15,1.6,7.15,1.59,7.15,1.59,7.15,1.6,7.15,1.59,7.15,1.59,7.15,1.6,7.16,1.59,7.15,1.59,7.15,1.59,7.15,1.6,7.15,1.59,7.15,1.59,7.15,1.6,7.15,1.59,7.15,1.59,7.16,1.6,7.15,1.59,7.15,1.59,7.15,1.6,7.15,1.59,7.15,1.59,7.15,1.59,7.15,1.6h.06l.06,0h.05l.06,0h.05l0,0,.06,0,.05,0,.05,0,0,0,.05,0,0,0,.05,0,.05,0,0,0,.05,0,0,0,0,0,.05,0,0,0,.05,0,0,0,0,0,0,0,.05,0,0,0,0,0,0,0,0,0,0,0,0,0,0,0,0,0,0,0,0,0,0,0,0,0,0,.05,0,0,0,0,0,0,0,0,0,0,0,.05,0,0,0,0,0,0,0,0,0,.05,0,0,0,.06v0l0,.05,0,.06v.11l0,0v1.29l0,0v0l0,.06,0,0,0,.05,0,0,0,0,0,0,0,0,0,.05,0,0,0,0,0,0,0,0,0,.05,0,0,0,0,0,0,0,0,0,0,0,.05,0,0,0,0,0,0,0,0,0,0,0,0,0,0,0,0,0,0,0,0,0,0-.05,0,0,0,0,0,0,0-.05,0,0,0-.05,0,0,0-.05,0,0,0-.05,0-.05,0,0,0-.05,0-.06,0-.05,0-10.65,4.07-10.66,4.06-10.65,4.07-10.65,4.07-10.66,4.07-10.65,4.07-10.65,4.07L2930,1723.6l-10.65,4.07-10.66,4.07-10.65,4.07-10.65,4.06-10.66,4.07-10.65,4.07-10.65,4.07-10.66,4.07-10.65,4.07-10.65,4.07-10.66,4.07-10.65,4.07-10.65,4.07-10.66,4.07-10.65,4.06-10.66,4.07-10.65,4.07-10.65,4.07-10.66,4.07L2716.9,1805l-10.65,4.07-10.66,4.07-10.65,4.07-10.65,4.07-10.66,4.07-10.65,4.06-10.66,4.07-10.65,4.07L2621,1841.6l-10.66,4.07-10.65,4.07-10.65,4.07-10.66,4.07-10.65,4.07L2557.1,1866l-10.66,4.07-10.65,4.06-10.66,4.07-10.65,4.07-10.65,4.07-10.66,4.07-10.65,4.07-10.65,4.07-10.66,4.07-10.65,4.07-10.65,4.07-10.66,4.07-10.65,4.06-10.66,4.07-10.65,4.07-10.65,4.07-10.66,4.07-10.65,4.07-10.65,4.07L2344,1947.4l-10.65,4.07h-1Zm221.71-362.86-3.36,5.54-3.36,5.55-3.36,5.54-3.37,5.54-3.36,5.54-3.36,5.54-3.36,5.54-3.36,5.54-3.36,5.54-3.36,5.54-3.36,5.54-3.37,5.54-3.36,5.54-3.36,5.54-3.36,5.54-3.36,5.54L2497,1683l-3.36,5.54-3.36,5.54-3.37,5.54-3.36,5.54-3.36,5.54-3.36,5.54-3.36,5.54-3.36,5.54-3.36,5.54-3.36,5.54-3.37,5.54-3.36,5.54-3.36,5.54-3.36,5.54-3.36,5.54-3.36,5.54-3.36,5.54-3.36,5.54-3.37,5.54-3.36,5.54-3.36,5.54-3.36,5.54-3.36,5.54-3.36,5.54-3.36,5.55-3.36,5.54-3.37,5.54-3.36,5.54-3.36,5.54-3.36,5.54-3.36,5.54-3.36,5.54-3.36,5.54-3.36,5.54-3.36,5.54-3.37,5.54-3.36,5.54-3.36,5.54-3.36,5.54-3.36,5.54-3.36,5.54-3.36,5.54-3.36,5.54-3.37,5.54-3.36,5.54-3.36,5.54-3.36,5.54,10.4-4,10.4-4,10.4-4,10.4-4,10.4-4,10.4-4,10.4-4,10.4-4,10.4-4,10.4-4,10.4-4,10.4-4,10.4-4,10.4-4,10.4-4,10.4-4,10.4-4,10.4-4,10.4-4,10.4-4,10.4-4,10.4-4,10.4-4,10.4-4,10.4-4,10.4-4,10.4-4,10.4-4,10.4-4,10.4-4,10.4-4,10.4-4,10.4-4,10.4-4,10.4-4,10.4-4,10.4-4,10.4-4,10.4-4,10.4-4,10.4-4,10.4-4,10.4-4,10.4-4,10.4-4,10.4-4,10.4-4,10.4-4,10.4-4,10.4-4,10.4-4,10.4-4,10.4-4,10.4-4,10.4-4,10.4-4,10.4-4,10.4-4,10.4-4,10.4-4,10.4-4,10.4-4,10.4-4,10.4-4-7-1.57-7-1.57-7-1.57-7-1.56-7-1.57-7-1.57-7-1.57-7-1.57-7-1.56-7-1.57-7-1.57-7-1.57-7-1.57-7-1.56-7-1.57-7-1.57-7-1.57-7-1.57-7-1.56-7-1.57-7-1.57-7-1.57-7-1.57-7-1.56-7-1.57-7-1.57-7-1.57-7-1.57-7-1.56-7-1.57-7-1.57-7-1.57-7-1.57-7-1.56-7-1.57-7-1.57-7-1.57-7-1.57-7-1.56-7-1.57-7-1.57-7-1.57-7-1.57-7-1.56-7-1.57-7-1.57-7-1.57-7-1.57-7-1.56-7-1.57-7-1.57-7-1.57-7-1.57-7-1.57-7-1.56-7-1.57-7-1.57-7-1.57-7-1.57-7-1.56-7-1.57-7-1.57-7-1.57Zm-823.2,322.35,0,.18,0,.18,0,.18,0,.19,0,.18,0,.18,0,.18,0,.19,0,.18,0,.18,0,.18,0,.18,0,.19,0,.18,0,.18,0,.18,0,.19,0,.18,0,.18,0,.18,0,.18,0,.19,0,.18,0,.18,0,.18,0,.19,0,.18,0,.18,0,.18,0,.18,0,.19,0,.18,0,.18,0,.18,0,.19,0,.18,0,.18,0,.18,0,.18,0,.19,0,.18,0,.18,0,.18,0,.19,0,.18,0,.18,0,.18,0,.18,0,.19,0,.18,0,.18,0,.18,0,.19,0,.18,0,.18,0,.18,0,.18,0,.19,0,.18,0,.18,0,.18,0,.19,0,.18,0,.18.13-.18.13-.18.13-.18.13-.18.14-.19.13-.18.13-.18.13-.18.13-.18.13-.18.13-.18.13-.19.13-.18.13-.18.13-.18.13-.18.13-.18.13-.18.13-.18.13-.19.13-.18.13-.18.13-.18.13-.18.13-.18.13-.18.13-.18.13-.19.13-.18.13-.18.13-.18.13-.18.13-.18.13-.18.14-.18.13-.19.13-.18.13-.18.13-.18.13-.18.13-.18.13-.18.13-.19.13-.18.13-.18.13-.18.13-.18.13-.18.13-.18.13-.18.13-.19.13-.18.13-.18.13-.18.13-.18.13-.18.13-.18.13-.18.13-.19.13-.18.13-.18.13-.18.13-.18.13-.18h-10.18Zm21-5.45,6.59,0,6.59,0,6.59,0,6.6,0,6.59,0,6.59,0,6.59,0,6.59,0,6.6,0,6.59,0,6.59,0,6.59,0,6.59,0,6.6,0,6.59,0,6.59,0,6.59,0,6.59,0,6.6,0,6.59,0,6.59,0,6.59,0,6.6,0,6.59,0,6.59,0,6.59,0,6.59,0,6.6,0,6.59,0,6.59,0,6.59,0,6.59,0,6.6,0,6.59,0,6.59,0,6.59,0,6.59,0,6.6,0,6.59,0,6.59,0,6.59,0,6.59,0,6.6,0,6.59,0,6.59,0,6.59,0,6.6,0,6.59,0,6.59,0,6.59,0,6.59,0,6.6,0,6.59,0,6.59,0,6.59,0,6.59,0,6.6,0,6.59,0,6.59,0,6.59,0,6.59,0,6.6,0,6.59,0,6.59,0,1-6.08,1.05-6.08,1-6.08,1-6.08,1.05-6.08,1.05-6.08,1-6.08,1-6.08,1.05-6.08,1.05-6.08,1-6.09,1-6.08,1.05-6.08,1-6.08,1-6.08,1.05-6.08,1.05-6.08,1-6.08,1-6.08,1.05-6.08,1.05-6.08,1-6.09,1-6.08,1.05-6.08,1-6.08,1.05-6.08,1-6.08,1.05-6.08,1-6.08,1.05-6.08,1-6.08,1.05-6.08,1-6.09,1.05-6.08,1-6.08,1-6.08,1.05-6.08,1.05-6.08,1-6.08,1-6.08,1.05-6.08,1.05-6.08,1-6.09,1-6.08,1.05-6.08,1-6.08,1.05-6.08,1-6.08,1.05-6.08,1-6.08,1.05-6.08,1-6.08,1.05-6.08,1-6.09,1.05-6.08,1-6.08,1-6.08,1.05-6.08,1.05-6.08,1-6.08,1-6.08,1.05-6.08,1.05-6.08,1-6.08-2.84-.64-2.84-.63-2.84-.63-2.84-.64-2.85-.63-2.84-.63-2.84-.64-2.84-.63-2.84-.63-2.85-.64-2.84-.63-2.84-.63-2.84-.64-2.84-.63-2.85-.63-2.84-.63-2.84-.64-2.84-.63-2.84-.63-2.85-.64-2.84-.63-2.84-.63-2.84-.64-2.84-.63-2.85-.63-2.84-.64-2.84-.63-2.84-.63-2.84-.64-2.85-.63-2.84-.63-2.84-.63-2.84-.64-2.84-.63-2.85-.63-2.84-.64-2.84-.63-2.84-.63-2.84-.64-2.85-.63-2.84-.63-2.84-.64-2.84-.63-2.84-.63-2.85-.64-2.84-.63-2.84-.63-2.84-.63-2.84-.64-2.85-.63-2.84-.63-2.84-.64-2.84-.63-2.84-.63-2.85-.64-2.84-.63-2.84-.63-2.84-.64-2.84-.63-2.85-.63-2.84-.64-2.84-.63-2.84-.63-2.84-.63-4.8,6.67-4.8,6.68-4.8,6.67-4.79,6.68-4.8,6.67-4.8,6.68-4.8,6.67-4.79,6.68-4.8,6.67-4.8,6.68-4.8,6.67-4.8,6.68-4.79,6.67-4.8,6.68-4.8,6.67-4.8,6.68-4.79,6.67-4.8,6.68-4.8,6.67L1963,1612l-4.79,6.67-4.8,6.68-4.8,6.67-4.8,6.68-4.79,6.67-4.8,6.68-4.8,6.67-4.8,6.68-4.8,6.67-4.79,6.68-4.8,6.67-4.8,6.68-4.8,6.68-4.79,6.67-4.8,6.68-4.8,6.67-4.8,6.68-4.79,6.67-4.8,6.68-4.8,6.67-4.8,6.68-4.79,6.67-4.8,6.68-4.8,6.67-4.8,6.68-4.8,6.67-4.79,6.68-4.8,6.67-4.8,6.68-4.8,6.67-4.79,6.68-4.8,6.67-4.8,6.68-4.8,6.67-4.79,6.68-4.8,6.67-4.8,6.68-4.8,6.67-4.79,6.68-4.8,6.67-4.8,6.68-4.8,6.67-4.8,6.68Zm-21.88-.13h15l4.85-6.75,4.85-6.75,4.85-6.74,4.85-6.75,4.85-6.75,4.85-6.75,4.85-6.75,4.85-6.75,4.85-6.75,4.85-6.74,4.86-6.75,4.85-6.75,4.85-6.75,4.85-6.75,4.85-6.75,4.85-6.75,4.85-6.74,4.85-6.75,4.85-6.75,4.85-6.75,4.85-6.75,4.85-6.75,4.85-6.75,4.85-6.74,4.85-6.75,4.85-6.75,4.85-6.75,4.85-6.75,4.85-6.75,4.85-6.75,4.85-6.74,4.85-6.75,4.86-6.75,4.85-6.75,4.85-6.75,4.85-6.75,4.85-6.75,4.85-6.74,4.85-6.75,4.85-6.75,4.85-6.75,4.85-6.75,4.85-6.75,4.85-6.75,4.85-6.74,4.85-6.75,4.85-6.75,4.85-6.75,4.85-6.75,4.85-6.75,4.85-6.75,4.85-6.74,4.85-6.75,4.85-6.75,4.86-6.75,4.85-6.75,4.85-6.75,4.85-6.74,4.85-6.75,4.85-6.75,4.85-6.75,4.85-6.75,4.85-6.75,4.85-6.75,0,0,0,0,0,0,0,0,0,0,0,0,0,0,0,0,0,0,0,0,0,0,0,0,0,0,0,0,0,0,0,0,0,0,0,0,0,0,0,0,.05,0,0,0,0,0,.05,0,0,0,0,0,.05,0,0,0,0,0,.05,0,0,0,.05,0,0,0h0l.05,0h0l.05,0h1.36l2.86.64,2.87.64,2.86.64,2.87.64,2.86.63,2.87.64,2.87.64,2.86.64,2.87.64,2.86.64,2.87.63,2.87.64,2.86.64,2.87.64,2.86.64,2.87.64,2.86.64,2.87.63,2.87.64,2.86.64,2.87.64,2.86.64,2.87.64,2.87.63,2.86.64,2.87.64,2.86.64,2.87.64,2.87.64,2.86.64,2.87.63,2.86.64,2.87.64,2.86.64,2.87.64,2.87.64,2.86.63,2.87.64,2.86.64,2.87.64,2.87.64,2.86.64,2.87.64,2.86.63,2.87.64,2.87.64,2.86.64,2.87.64,2.86.64,2.87.63,2.86.64,2.87.64,2.87.64,2.86.64,2.87.64,2.86.64,2.87.63,2.87.64,2.86.64,2.87.64,2.86.64,2.87.64,2.86.63,2.87.64.68-3.93.67-3.92.68-3.93.68-3.93.67-3.93.68-3.93.68-3.93.67-3.93.68-3.92.68-3.93.68-3.93.67-3.93.68-3.93.68-3.93.67-3.92.68-3.93.68-3.93.67-3.93.68-3.93.68-3.93.67-3.93.68-3.92.68-3.93.67-3.93.68-3.93.68-3.93.67-3.93.68-3.93.68-3.92.67-3.93.68-3.93.68-3.93.67-3.93.68-3.93.68-3.93.67-3.92.68-3.93.68-3.93.67-3.93.68-3.93.68-3.93.67-3.93.68-3.92.68-3.93.67-3.93.68-3.93.68-3.93.67-3.93.68-3.93.68-3.92.68-3.93.67-3.93.68-3.93.68-3.93.67-3.93.68-3.93.68-3.92.67-3.93.68-3.93.68-3.93.67-3.93.68-3.93.68-3.93.67-3.92-9.94,2-9.94,2-9.93,2-9.94,2-9.94,2-9.94,2-9.94,2-9.94,2-9.94,2-9.94,2-9.94,2-9.94,2-9.94,2-9.94,2-9.94,2-9.93,2-9.94,2-9.94,2-9.94,2-9.94,2-9.94,2-9.94,2-9.94,2-9.94,2-9.94,2-9.94,2-9.94,2-9.93,2-9.94,2-9.94,2-9.94,2-9.94,2-9.94,2-9.94,2-9.94,2-9.94,2-9.94,2-9.94,2-9.94,2-9.93,2-9.94,2-9.94,2-9.94,2-9.94,2-9.94,2-9.94,2-9.94,2-9.94,2-9.94,2-9.94,2-9.94,2-9.93,2-9.94,2-9.94,2-9.94,2-9.94,2-9.94,2-9.94,2-9.94,2-9.94,2-9.94,2-9.94,2-9.94,2-9.94,2,1.27,8,1.27,8,1.26,8,1.27,8,1.27,8,1.26,8,1.27,8,1.26,8,1.27,8,1.27,8,1.26,8,1.27,8,1.27,8,1.26,8,1.27,8,1.26,8,1.27,8,1.27,8,1.26,8,1.27,8,1.27,8,1.26,8,1.27,8,1.26,8,1.27,8,1.27,8,1.26,8,1.27,8,1.26,8,1.27,8,1.27,8,1.26,8,1.27,8,1.27,8,1.26,8,1.27,8,1.26,8,1.27,8,1.27,8,1.26,8,1.27,8,1.27,8,1.26,8,1.27,8,1.26,8,1.27,8,1.27,8,1.26,8,1.27,8,1.26,8,1.27,8,1.27,8,1.26,8,1.27,8,1.27,8,1.26,8,1.27,8,1.26,8,1.27,8,1.27,8,1.26,8,1.27,8,1.27,8Zm517.2-390.83,4.75,1,4.76,1.06,4.75,1.06,4.75,1.06L2271,1520l4.75,1.06,4.75,1.06,4.75,1.06,4.76,1.06,4.75,1,4.75,1.06,4.76,1.06,4.75,1.06,4.75,1.06,4.76,1.06,4.75,1.06,4.75,1.06,4.75,1.06,4.76,1,4.75,1.06L2347,1537l4.76,1.06,4.75,1.06,4.75,1.06,4.75,1.06,4.76,1.06,4.75,1.06,4.75,1,4.76,1.06,4.75,1.06,4.75,1.06,4.76,1.06,4.75,1.06,4.75,1.06,4.75,1.06,4.76,1,4.75,1.06,4.75,1.06,4.76,1.06,4.75,1.06,4.75,1.06,4.76,1.06,4.75,1.06,4.75,1.06,4.75,1,4.76,1.06,4.75,1.06,4.75,1.06,4.76,1.06,4.75,1.06,4.75,1.06,4.75,1.06,4.76,1.06,4.75,1.05,4.75,1.06,4.76,1.06,4.75,1.06,4.75,1.06,4.76,1.06,4.75,1.06,4.75,1.06,4.75,1.06,4.76,1,4.75,1.06,2.74-4.51,2.74-4.52,2.74-4.52,2.74-4.52,2.74-4.52,2.75-4.51,2.74-4.52,2.74-4.52,2.74-4.52,2.74-4.51,2.74-4.52,2.74-4.52,2.74-4.52,2.74-4.51,2.74-4.52,2.74-4.52,2.74-4.52,2.74-4.51,2.74-4.52,2.75-4.52,2.74-4.52,2.74-4.51,2.74-4.52,2.74-4.52,2.74-4.52,2.74-4.51,2.74-4.52,2.74-4.52,2.74-4.52,2.74-4.51,2.74-4.52,2.75-4.52,2.74-4.52,2.74-4.52,2.74-4.51,2.74-4.52,2.74-4.52,2.74-4.52,2.74-4.51,2.74-4.52,2.74-4.52,2.74-4.52,2.74-4.51,2.74-4.52,2.75-4.52,2.74-4.52,2.74-4.51,2.74-4.52,2.74-4.52,2.74-4.52,2.74-4.51,2.74-4.52,2.74-4.52,2.74-4.52,2.74-4.51,2.74-4.52,2.74-4.52,2.75-4.52,2.74-4.51,2.74-4.52,2.74-4.52,2.74-4.52,2.74-4.51,2.74-4.52-1.37-1.62-1.37-1.63-1.37-1.62-1.37-1.62-1.37-1.62-1.37-1.62-1.37-1.62-1.38-1.62-1.37-1.62-1.37-1.63-1.37-1.62-1.37-1.62-1.37-1.62-1.37-1.62-1.37-1.62-1.37-1.62-1.37-1.63-1.37-1.62-1.37-1.62-1.37-1.62-1.37-1.62-1.37-1.62-1.38-1.62-1.37-1.63-1.37-1.62-1.37-1.62-1.37-1.62-1.37-1.62-1.37-1.62-1.37-1.62-1.37-1.63-1.37-1.62-1.37-1.62-1.37-1.62-1.37-1.62-1.37-1.62-1.37-1.62-1.38-1.62-1.37-1.63-1.37-1.62-1.37-1.62-1.37-1.62-1.37-1.62-1.37-1.62-1.37-1.62-1.37-1.63-1.37-1.62-1.37-1.62-1.37-1.62-1.37-1.62-1.37-1.62-1.37-1.62-1.38-1.63-1.37-1.62-1.37-1.62-1.37-1.62-1.37-1.62-1.37-1.62-1.37-1.62-1.37-1.63-1.37-1.62-1.37-1.62-1.37-1.62-1.37-1.62-5.44,1.11-5.44,1.12-5.44,1.11-5.44,1.11-5.44,1.12-5.44,1.11-5.44,1.12-5.44,1.11-5.44,1.11-5.44,1.12-5.44,1.11-5.44,1.12-5.44,1.11-5.44,1.11-5.44,1.12-5.44,1.11-5.44,1.11-5.44,1.12-5.44,1.11-5.44,1.12-5.44,1.11-5.44,1.11-5.44,1.12-5.44,1.11-5.44,1.12-5.44,1.11-5.44,1.11-5.44,1.12-5.44,1.11-5.44,1.11-5.44,1.12-5.44,1.11-5.44,1.12-5.44,1.11-5.43,1.11-5.44,1.12-5.44,1.11-5.44,1.12-5.44,1.11-5.44,1.11-5.44,1.12-5.44,1.11-5.44,1.11-5.44,1.12-5.44,1.11-5.44,1.12-5.44,1.11-5.44,1.11-5.44,1.12-5.44,1.11-5.44,1.11-5.44,1.12-5.44,1.11-5.44,1.12-5.44,1.11-5.44,1.11-5.44,1.12-5.44,1.11-5.44,1.12-5.44,1.11-5.44,1.11-5.44,1.12-5.44,1.11-5.44,1.11-.68,4-.69,4-.68,4-.68,4-.69,4-.68,4-.68,4-.68,4-.69,4-.68,4-.68,4-.69,4-.68,4-.68,4-.69,4-.68,4-.68,4-.69,4-.68,4-.68,4-.69,4-.68,4-.68,4-.69,4-.68,4-.68,4-.69,4-.68,4-.68,4-.69,4-.68,4-.68,4-.69,4-.68,4-.68,4-.69,4-.68,4-.68,4-.69,4-.68,4-.68,4-.69,4-.68,4-.68,4-.69,4-.68,4-.68,4-.69,4-.68,4-.68,4-.69,4-.68,4-.68,4-.69,4-.68,4-.68,4-.69,4-.68,4-.68,4-.69,4-.68,4-.68,4-.69,4Zm392.94-331h1l0,0h.07l0,0h0l0,0,0,0h0l0,0,0,0h0l0,0,0,0,0,0,0,0,0,0,0,0,0,0,0,0,0,0,0,0,0,0,0,0,0,0,0,0,0,0,0,0,0,0,0,0,0,0,0,0,0,0,0,0,0,0,0,0,0,0,0,0,0,0,1.37,1.62L2645,1188l1.37,1.62,1.37,1.61,1.37,1.62,1.36,1.62,1.37,1.62,1.37,1.62,1.37,1.62,1.37,1.62,1.37,1.62,1.37,1.61,1.36,1.62,1.37,1.62,1.37,1.62,1.37,1.62,1.37,1.62,1.37,1.62,1.37,1.62,1.36,1.62,1.37,1.61,1.37,1.62,1.37,1.62,1.37,1.62,1.37,1.62,1.36,1.62,1.37,1.62,1.37,1.62,1.37,1.61,1.37,1.62,1.37,1.62,1.37,1.62,1.36,1.62,1.37,1.62,1.37,1.62,1.37,1.62,1.37,1.62,1.37,1.61,1.36,1.62,1.37,1.62,1.37,1.62,1.37,1.62,1.37,1.62,1.37,1.62,1.37,1.62,1.36,1.61,1.37,1.62,1.37,1.62,1.37,1.62,1.37,1.62,1.37,1.62,1.37,1.62,1.36,1.62,1.37,1.62,1.37,1.61,1.37,1.62,1.37,1.62,1.37,1.62,1.36,1.62,1.37,1.62,1.37,1.62,1.37,1.62,1.37,1.61,1.37,1.62,4.44-7.32,4.44-7.32,4.44-7.32,4.45-7.32,4.44-7.32,4.44-7.33,4.44-7.32,4.44-7.32,4.45-7.32,4.44-7.32,4.44-7.32,4.44-7.33,4.44-7.32,4.45-7.32,4.44-7.32,4.44-7.32,4.44-7.32,4.44-7.33,4.45-7.32,4.44-7.32,4.44-7.32,4.44-7.32L2832,1120l4.45-7.32,4.44-7.33,4.44-7.32,4.44-7.32,4.44-7.32,4.45-7.32,4.44-7.32,4.44-7.33,4.44-7.32,4.44-7.32,4.45-7.32,4.44-7.32,4.44-7.32,4.44-7.33,4.44-7.32,4.45-7.32,4.44-7.32,4.44-7.32,4.44-7.32,4.44-7.33,4.45-7.32,4.44-7.32,4.44-7.32,4.44-7.32,4.44-7.32,4.45-7.32,4.44-7.33,4.44-7.32,4.44-7.32,4.44-7.32,4.45-7.32,4.44-7.32,4.44-7.33,4.44-7.32,4.44-7.32,4.45-7.32,4.44-7.32,4.44-7.32,4.44-7.33,4.44-7.32,4.45-7.32-10-.51-10-.51-10-.52-10-.51-10-.51-10-.51-10-.51-10-.52-10-.51-10-.51-10-.51-10-.52-10-.51-10-.51-10-.51-10-.51-10-.52-10-.51-10-.51-10-.51-10-.52-10-.51-10-.51-10-.51-10-.51-10-.52-10-.51-10-.51-10-.51-10-.52-10-.51-10-.51-10-.51-10-.51-10-.52-10-.51-10-.51-10-.51-10-.52-10-.51-10-.51-10-.51-10-.51-10-.52-10-.51-10-.51-10-.51-10-.52-10-.51-10-.51-10-.51-10-.51-10-.52-10-.51-10-.51-10-.51-10-.52-10-.51-10-.51-10-.51-10-.51-10-.52-10-.51-10-.51-1.26,7.31-1.26,7.31-1.26,7.32-1.26,7.31-1.26,7.31-1.26,7.32-1.26,7.31-1.26,7.31-1.26,7.31-1.26,7.32-1.26,7.31-1.26,7.31L2356.2,882l-1.26,7.32-1.26,7.31-1.26,7.31-1.26,7.32-1.26,7.31-1.26,7.31-1.26,7.31-1.26,7.32-1.26,7.31-1.26,7.31-1.25,7.31-1.26,7.32-1.26,7.31-1.26,7.31-1.26,7.32-1.26,7.31-1.26,7.31-1.26,7.31-1.26,7.32-1.26,7.31-1.26,7.31-1.26,7.32-1.26,7.31-1.26,7.31-1.26,7.31-1.26,7.32-1.26,7.31-1.26,7.31-1.26,7.31-1.26,7.32-1.26,7.31-1.26,7.31-1.26,7.32-1.26,7.31-1.26,7.31-1.26,7.31-1.26,7.32-1.26,7.31-1.26,7.31-1.26,7.31-1.26,7.32-1.26,7.31-1.26,7.31-1.26,7.32-1.26,7.31-1.26,7.31-1.26,7.31-1.26,7.32-1.26,7.31-1.25,7.31L2292,1255l5.43-1.12,5.43-1.11,5.43-1.11,5.43-1.11,5.43-1.12,5.44-1.11,5.43-1.11,5.43-1.11,5.43-1.12,5.43-1.11,5.44-1.11,5.43-1.11,5.43-1.11,5.43-1.12,5.43-1.11,5.43-1.11,5.44-1.11,5.43-1.12,5.43-1.11,5.43-1.11,5.43-1.11,5.43-1.12,5.44-1.11,5.43-1.11,5.43-1.11,5.43-1.11,5.43-1.12,5.44-1.11,5.43-1.11,5.43-1.11,5.43-1.12,5.43-1.11,5.43-1.11,5.44-1.11,5.43-1.11,5.43-1.12,5.43-1.11,5.43-1.11,5.44-1.11,5.43-1.12,5.43-1.11,5.43-1.11,5.43-1.11,5.43-1.12,5.44-1.11,5.43-1.11,5.43-1.11,5.43-1.11,5.43-1.12,5.44-1.11,5.43-1.11,5.43-1.11,5.43-1.12,5.43-1.11,5.43-1.11,5.44-1.11,5.43-1.12,5.43-1.11,5.43-1.11,5.43-1.11,5.43-1.11,5.44-1.12,5.43-1.11,5.43-1.11h.56Z"/></g></g></svg>