<svg xmlns="http://www.w3.org/2000/svg" xmlns:xlink="http://www.w3.org/1999/xlink" viewBox="0 0 3097.49 2112.64"><defs><style>.cls-1{fill:url(#linear-gradient);}.cls-2{fill:url(#Gradiente_sem_nome_49);}.cls-3{fill:url(#Gradiente_sem_nome_13);}.cls-4{fill:url(#Gradiente_sem_nome_33);}</style><linearGradient id="linear-gradient" y1="994.77" x2="1212.99" y2="994.77" gradientUnits="userSpaceOnUse"><stop offset="0" stop-color="#fff8a5"/><stop offset="0.03" stop-color="#fde67e"/><stop offset="0.04" stop-color="#f0d36f"/><stop offset="0.08" stop-color="#cb9a42"/><stop offset="0.11" stop-color="#b47727"/><stop offset="0.13" stop-color="#ab6a1c"/><stop offset="0.16" stop-color="#b67a29"/><stop offset="0.23" stop-color="#d2a44a"/><stop offset="0.32" stop-color="#fde67e"/><stop offset="0.39" stop-color="#fef298"/><stop offset="0.44" stop-color="#fff8a5"/><stop offset="0.69" stop-color="#fde67e"/><stop offset="0.78" stop-color="#fcd38e"/><stop offset="0.85" stop-color="#fccb95"/><stop offset="0.89" stop-color="#fccf92"/><stop offset="0.93" stop-color="#fdda88"/><stop offset="0.96" stop-color="#fde67e"/><stop offset="0.98" stop-color="#fef093"/><stop offset="1" stop-color="#fff7a0"/></linearGradient><linearGradient id="Gradiente_sem_nome_49" x1="66.3" y1="746.19" x2="1724.34" y2="746.19" gradientUnits="userSpaceOnUse"><stop offset="0" stop-color="#ff992e"/><stop offset="0.19" stop-color="#f87f39"/><stop offset="0.96" stop-color="#da1566"/></linearGradient><linearGradient id="Gradiente_sem_nome_13" x1="3097.49" y1="1117.88" x2="1884.52" y2="1117.88" gradientUnits="userSpaceOnUse"><stop offset="0" stop-color="#ff992e"/><stop offset="0.19" stop-color="#f87f39"/><stop offset="1" stop-color="#da1566"/></linearGradient><linearGradient id="Gradiente_sem_nome_33" x1="-1823.59" y1="-1802.43" x2="-165.54" y2="-1802.43" gradientTransform="translate(1207.61 -435.96) rotate(180)" gradientUnits="userSpaceOnUse"><stop offset="0" stop-color="#da1566"/><stop offset="1" stop-color="#ff992e"/></linearGradient></defs><g id="Camada_2" data-name="Camada 2"><g id="Layer_1" data-name="Layer 1"><path class="cls-1" d="M301.09,1989.53a2.78,2.78,0,0,1-2.08-.94c-2.39-2.73-7-7.81-9.33-10.5l-32.62-36.77c-29.45-33.19-59.12-66.62-88.56-99.81L56.63,1715.45l-37.28-42-14-15.76L.7,1652.41a2.76,2.76,0,0,1-.68-1.57,2.8,2.8,0,0,1,2-2.95c4.53-1.28,13.42-4,17.93-5.29l44.85-13.23,134.53-39.7L576,1478.52l-300.5-439c-57.5-84-115.3-168.41-172.79-252.4l-7.51-11a2.49,2.49,0,0,1-.36-.73c-.78-6.36-2.21-18.29-2.92-24.64-2.22-19.37-4.8-40.93-7-60.29-7-60-14.09-120.84-21.09-180.89Q35,262.54,6.16,15.19C6.17,15,4.72,3.11,4.74,2.94A2.84,2.84,0,0,1,7.23,0C31,.53,59,1,82.74,1.5L421,8.16,947.17,18.52l263.08,5.18a2.78,2.78,0,0,1-.08,5.56c-9.64-.09-28-.62-37.51-.73L10.66,5.65q26.55,227.83,53.15,456c8.36,71.79,16.8,144.19,25.17,216,3.68,31.55,7.51,64.46,11.19,96l45.24,66.08q218.7,319.7,437.66,639.47a2.81,2.81,0,0,1-1.83,3.62l-9,2.65c-14.38,4.22-30.43,9-44.8,13.22L393.07,1538.3,7.78,1652l198.47,223.67,69.23,78,18.46,20.8,9.23,10.41A2.8,2.8,0,0,1,301.09,1989.53Z"/><path class="cls-2" d="M727.24,1331.37l-375.17-19.16-182.44-9.33-60.82-3.1-30.41-1.56a2.78,2.78,0,0,1-2.23-4.22c2.34-3.71,6.68-11.12,9-14.82,7.22-11.88,15.25-25.17,22.47-37,22.38-36.89,45-74.24,67.43-111.13L363.84,819.83l-283-334.74-9.28-11L67,468.63a2.71,2.71,0,0,1-.28-.41,2.8,2.8,0,0,1,.72-3.61c3.19-2.69,6.59,4.36,8.43,5.88l9.24,10.93L366.89,814.81,540.35,528.89l-457.67-102c-2.54-.49-3-4.46-.39-5.32,5.46-2.06,15.89-6.08,21.31-8.13l85.23-32.56,245-93.59,191.76-73.24,117.19-44.76c5.32-2,16.25-6.26,21.62-8.24a2.78,2.78,0,0,1,3.06,4.15l-3.41,5.62L549.14,525.14l302.08,67.3q33.69-195.59,67.4-391.24a2.8,2.8,0,0,1,2.76-2.31l26.77.15,80.28.48,321.16,1.9,9.58-13.33,4.79-6.67a2.83,2.83,0,0,1,5.29,1.18q1.49,9.47,3,19l333,2,10.92.07c.41.12,6.44-.27,6.84.41a2.8,2.8,0,0,1,.56,4.38,2.77,2.77,0,0,1-2,.81l-16.33-.1-332.1-2q26.67,168.89,53.36,337.94c6.32,40.06,12.73,80.62,19.06,120.69,2,12.9,4.32,27.33,6.35,40.23.58,4,1.94,12.1,2.54,16.09a2.8,2.8,0,0,1-1.49,2.92c-73.45,15.34-147.49,30.2-221,45.35L811.39,856.46,758,1166.61c-6.33,36.77-12.75,74-19.08,110.76l-6.36,36.93c-.63,3.63-1.92,11.12-2.54,14.76A2.8,2.8,0,0,1,727.24,1331.37ZM83.34,1292.9l641.57,32.78q40.3-234,80.62-468l-266.15,54.5L474.2,925.51c-5.09,1-11.81,2.55-16.91,3.39-2.22-.06-3.37-2.89-4.81-4.22L447,918.2q-39.67-46.94-79.37-93.89ZM370.68,819.29,458.4,923.06l348.15-71.29q21.86-126.88,43.73-253.84L546.09,530.17Zm485-220.15Q834.06,724.83,812.4,850.57l636.11-130.24q-40.5-256.56-81-513.23l-15-.1L1129.31,517.44c-20.91,29.08-42.16,58.65-63.06,87.73-7.78,10.81-16.48,22.92-24.25,33.74-1.2,2-4,.79-5.73.46-2.55-.59-6-1.34-8.6-1.92Zm.95-5.49,181.88,40.52,307-427.2-421.89-2.5Q890.2,399,856.67,593.65ZM92.92,423.51,543.4,523.87,758.52,169.29Zm1263.5-222,10.18.06q-.91-5.82-1.84-11.66Z"/><path class="cls-3" d="M3090,2112.64l-1146.35-22.57-37.59-.74-18.79-.37c-2.33.06-3.73-3.24-1.85-4.81a2.81,2.81,0,0,1,2-.76l56.23,1.11L3086.84,2107q-26.57-227.84-53.15-456l-25.18-216c-3.68-31.55-7.51-64.46-11.19-96L2952.08,1273q-218.7-319.7-437.66-639.48a2.81,2.81,0,0,1,1.83-3.62l9-2.64c14.38-4.22,30.43-9,44.8-13.22l134.41-39.66,385.29-113.69q-143-161.22-286.16-322.5l-4.61-5.2-4.62-5.21a2.73,2.73,0,0,1-.68-1.48c-.39-2.54,3.11-4.33,4.85-2.21l51.27,57.78L3017.55,371l55.93,63,18.65,21c.43.56,5,5.43,5.14,6a2.8,2.8,0,0,1-1.78,3.74l-574,169.37,458.27,669.42c6.78,10.09,16.15,23.34,22.82,33.46,2.56,19.56,4.83,41.42,7.21,61,5.59,47.93,11.28,96.79,16.87,144.71l45,385.9c5.11,43.87,10.35,88.78,15.46,132.66,1.24,10.65,3,25.49,4.22,36.17,0,0,1.41,12.1,1.41,12.14A2.81,2.81,0,0,1,3090,2112.64Z"/><path class="cls-4" d="M2332.38,1951.65a2.8,2.8,0,0,1-2.38-4.23l6.82-11.25,13.65-22.49,51.18-84.35q73.3-120.86,146.7-241.81l-302.08-67.3q-33.69,195.57-67.4,391.24a2.8,2.8,0,0,1-2.76,2.31l-26.76-.16-80.29-.47-321.16-1.91-9.58,13.34-4.79,6.67a2.83,2.83,0,0,1-5.28-1.18l-3-19-333-2-10.92-.06c-.41-.12-6.44.27-6.84-.41a2.8,2.8,0,0,1-.56-4.38,2.75,2.75,0,0,1,2-.81l16.33.1,332.1,2q-26.67-168.88-53.36-337.94c-6.32-40.06-12.73-80.63-19-120.69-2-12.9-4.32-27.33-6.36-40.23-.58-4-1.94-12.1-2.54-16.09a2.8,2.8,0,0,1,1.49-2.92c73.45-15.34,147.49-30.2,221-45.35l420.55-86.12,53.43-310.14c6.34-36.77,12.74-74,19.08-110.76,2.06-11.84,4.3-25.09,6.36-36.93.79-3.64,1.8-11.11,2.54-14.76a2.8,2.8,0,0,1,2.38-2.31q202.86,10.26,405.94,20.72l152,7.77,81.08,4.14,10.14.52a2.2,2.2,0,0,1,.36,0,2.81,2.81,0,0,1,2,3.9c-4.07,6.74-9.55,15.78-13.64,22.51l-274.19,451.94,283,334.74,9.27,11,4.64,5.49a2.92,2.92,0,0,1,.29.4,2.81,2.81,0,0,1-.73,3.61c-3.19,2.7-6.59-4.36-8.43-5.88l-9.24-10.93L2730.6,1297.85q-86.7,142.94-173.46,285.92l429.07,95.59c6.33,1.43,15.12,3.34,21.46,4.77l7.15,1.6a2.5,2.5,0,0,1,.73.28,2.8,2.8,0,0,1,.63,4.4c-5.51,2.81-16.54,6.36-22.28,8.77l-106.54,40.69C2702.4,1810.32,2517.42,1881.54,2332.38,1951.65Zm221.71-362.86L2339,1943.37l665.6-254.22Zm-823.2,322.35q.93,5.82,1.85,11.66l8.34-11.6Zm21-5.45,421.89,2.49q33.53-194.54,67-389.18l-181.89-40.52Zm-21.88-.13,15,.09,223.12-310.43,63.06-87.73,24.25-33.75c1.2-1.94,4-.79,5.73-.45,2.55.58,6.05,1.33,8.6,1.91l171.95,38.31q21.66-125.68,43.31-251.42L1649,1392.33Q1689.48,1648.89,1730,1905.56Zm517.2-390.83,304.19,67.76,175.41-289.12-87.72-103.77-348.15,71.28Q2269.09,1387.78,2247.21,1514.73Zm392.94-331c2.23,0,3.44,2.89,4.86,4.23l5.48,6.47,20.52,24.28,58.85,69.61,284.29-468.58L2372.58,787q-40.3,234-80.62,468Q2466,1219.44,2640.15,1183.75Z"/></g></g></svg>